<svg xmlns="http://www.w3.org/2000/svg" viewBox="0 0 100 100">
  <style>
    .light-bg { fill: #264258; }
    .light-skyline { fill: #60A5FA; }
    .light-ai { fill: #14B8A6; }
    .dark-bg { fill: #1e293b; }
    .dark-skyline { fill: #3b82f6; }
    .dark-ai { fill: #06b6d4; }

    @media (prefers-color-scheme: dark) {
      .light-bg, .light-skyline, .light-ai { display: none; }
    }
    @media (prefers-color-scheme: light) {
      .dark-bg, .dark-skyline, .dark-ai { display: none; }
    }
  </style>

  <!-- Light mode -->
  <circle class="light-bg" cx="50" cy="50" r="48"/>
  <g class="light-skyline">
    <rect x="20" y="60" width="12" height="25" rx="1"/>
    <rect x="35" y="50" width="10" height="35" rx="1"/>
    <rect x="48" y="55" width="14" height="30" rx="1"/>
    <rect x="65" y="45" width="11" height="40" rx="1"/>
    <circle cx="26" cy="50" r="1.5" opacity="0.7"/>
    <circle cx="26" cy="55" r="1.5" opacity="0.7"/>
    <circle cx="40" cy="40" r="1.5" opacity="0.7"/>
    <circle cx="40" cy="45" r="1.5" opacity="0.7"/>
    <circle cx="55" cy="45" r="1.5" opacity="0.7"/>
    <circle cx="55" cy="50" r="1.5" opacity="0.7"/>
    <circle cx="70" cy="35" r="1.5" opacity="0.7"/>
    <circle cx="70" cy="40" r="1.5" opacity="0.7"/>
  </g>
  <g class="light-ai">
    <circle cx="50" cy="30" r="8"/>
    <path d="M 45 28 L 48 32 L 52 32 L 55 28 M 48 36 Q 50 38 52 36" fill="none" stroke="#264258" stroke-width="1.5"/>
  </g>

  <!-- Dark mode -->
  <circle class="dark-bg" cx="50" cy="50" r="48"/>
  <g class="dark-skyline">
    <rect x="20" y="60" width="12" height="25" rx="1"/>
    <rect x="35" y="50" width="10" height="35" rx="1"/>
    <rect x="48" y="55" width="14" height="30" rx="1"/>
    <rect x="65" y="45" width="11" height="40" rx="1"/>
    <circle cx="26" cy="50" r="1.5" opacity="0.8"/>
    <circle cx="26" cy="55" r="1.5" opacity="0.8"/>
    <circle cx="40" cy="40" r="1.5" opacity="0.8"/>
    <circle cx="40" cy="45" r="1.5" opacity="0.8"/>
    <circle cx="55" cy="45" r="1.5" opacity="0.8"/>
    <circle cx="55" cy="50" r="1.5" opacity="0.8"/>
    <circle cx="70" cy="35" r="1.5" opacity="0.8"/>
    <circle cx="70" cy="40" r="1.5" opacity="0.8"/>
  </g>
  <g class="dark-ai">
    <circle cx="50" cy="30" r="8"/>
    <path d="M 45 28 L 48 32 L 52 32 L 55 28 M 48 36 Q 50 38 52 36" fill="none" stroke="#1e293b" stroke-width="1.5"/>
  </g>
</svg>
