<svg xmlns="http://www.w3.org/2000/svg" width="500" height="500" viewBox="0 0 500 500">
  <!-- Marketing AI Houston Logo - Optimized Favicon -->
  <defs>
    <style>
      .leaf-main { fill: #0a4d3c; }
      .circuit-line { stroke: #0a4d3c; stroke-width: 1.5; fill: none; }
      .circuit-dot { fill: #0a4d3c; }
    </style>
  </defs>

  <!-- White background for contrast -->
  <rect width="500" height="500" fill="#ffffff"/>

  <!-- Leaf shape (teal/green) -->
  <path class="leaf-main" d="M 250 80 Q 340 140 340 250 Q 340 360 250 420 Q 160 360 160 250 Q 160 140 250 80 M 250 130 Q 310 170 310 250 Q 310 340 250 390 Q 190 340 190 250 Q 190 170 250 130"/>

  <!-- Simple circuit pattern accent -->
  <g class="circuit-line">
    <!-- Vertical line down the middle -->
    <line x1="250" y1="130" x2="250" y2="250"/>
    <!-- Horizontal lines with connection points -->
    <line x1="220" y1="190" x2="280" y2="190"/>
    <line x1="220" y1="310" x2="280" y2="310"/>
    <!-- Diagonal accent -->
    <line x1="250" y1="250" x2="250" y2="370"/>
  </g>

  <!-- Circuit connection dots -->
  <g class="circuit-dot">
    <circle cx="220" cy="190" r="3"/>
    <circle cx="280" cy="190" r="3"/>
    <circle cx="220" cy="310" r="3"/>
    <circle cx="280" cy="310" r="3"/>
  </g>
</svg>
