<svg xmlns="http://www.w3.org/2000/svg" xmlns:xlink="http://www.w3.org/1999/xlink" width="500" zoomAndPan="magnify" viewBox="0 0 375 374.999991" height="500" preserveAspectRatio="xMidYMid meet" version="1.0"><defs><clipPath id="d308483e33"><path d="M 167.269531 77 L 228 77 L 228 104 L 167.269531 104 Z M 167.269531 77 " clip-rule="nonzero"/></clipPath><clipPath id="1e945418ea"><path d="M 233 141 L 234 141 L 234 141.425781 L 233 141.425781 Z M 233 141 " clip-rule="nonzero"/></clipPath><clipPath id="04d7806fc0"><path d="M 232 140 L 234 140 L 234 141.425781 L 232 141.425781 Z M 232 140 " clip-rule="nonzero"/></clipPath><clipPath id="f42c7bb787"><path d="M 167.269531 103 L 236 103 L 236 141.425781 L 167.269531 141.425781 Z M 167.269531 103 " clip-rule="nonzero"/></clipPath><clipPath id="4f66109df6"><path d="M 233 141 L 234 141 L 234 141.425781 L 233 141.425781 Z M 233 141 " clip-rule="nonzero"/></clipPath><clipPath id="2b4d2d37a7"><path d="M 167.269531 109 L 177 109 L 177 123 L 167.269531 123 Z M 167.269531 109 " clip-rule="nonzero"/></clipPath><clipPath id="1f4ac7d3b3"><path d="M 116.304688 62.488281 L 162 62.488281 L 162 156.238281 L 116.304688 156.238281 Z M 116.304688 62.488281 " clip-rule="nonzero"/></clipPath><clipPath id="c7d0e73b61"><path d="M 161.839844 77.59375 L 161.839844 141.382812 C 161.839844 143.394531 161.339844 145.273438 160.707031 147.039062 C 159.957031 148.800781 158.824219 150.429688 157.421875 151.8125 C 156.039062 153.191406 154.40625 154.324219 152.640625 155.089844 C 150.875 155.835938 148.859375 156.222656 146.84375 156.222656 C 142.8125 156.222656 139.027344 154.589844 136.457031 151.8125 C 135.457031 150.816406 134.441406 149.550781 133.804688 148.285156 C 133.171875 147.152344 132.671875 145.773438 132.421875 144.507812 C 130.15625 143.511719 128.007812 142.246094 126.125 140.730469 C 124.109375 139.214844 122.34375 137.335938 120.960938 135.1875 C 119.445312 133.042969 118.195312 130.664062 117.429688 128.019531 C 116.679688 125.660156 116.296875 123.015625 116.296875 120.253906 C 116.296875 119.257812 116.296875 118.242188 116.429688 117.109375 C 116.566406 116.113281 116.679688 115.097656 116.929688 114.097656 C 117.179688 113.21875 117.429688 112.335938 117.8125 111.453125 C 118.0625 110.570312 118.445312 109.824219 118.8125 109.058594 C 118.0625 107.425781 117.542969 105.777344 117.179688 104.148438 C 116.796875 102.386719 116.679688 100.621094 116.679688 98.742188 C 116.679688 96.097656 117.0625 93.449219 117.8125 91.074219 C 118.5625 88.5625 119.695312 86.164062 121.210938 84.035156 C 122.59375 82.023438 124.359375 80.144531 126.242188 78.496094 C 128.007812 76.980469 130.023438 75.734375 132.289062 74.71875 C 132.539062 73.339844 133.039062 71.957031 133.671875 70.691406 C 134.421875 69.179688 135.304688 67.933594 136.4375 66.800781 C 137.820312 65.535156 139.449219 64.402344 141.21875 63.65625 C 142.984375 62.910156 144.902344 62.507812 146.902344 62.507812 C 148.917969 62.507812 150.933594 62.890625 152.699219 63.636719 C 154.464844 64.386719 156.097656 65.515625 157.480469 66.78125 C 158.863281 68.160156 159.996094 69.792969 160.761719 71.691406 C 161.339844 73.703125 161.839844 75.582031 161.839844 77.59375 Z M 158.304688 141.382812 L 158.304688 77.59375 C 158.304688 76.082031 157.921875 74.585938 157.421875 73.183594 C 156.789062 71.804688 156.039062 70.539062 154.90625 69.542969 C 153.910156 68.546875 152.640625 67.664062 151.257812 67.03125 C 149.875 66.53125 148.496094 66.28125 146.84375 66.28125 C 145.324219 66.28125 143.828125 66.53125 142.5625 67.03125 C 141.179688 67.664062 139.910156 68.546875 138.777344 69.542969 C 137.78125 70.539062 136.898438 71.804688 136.378906 73.183594 C 135.746094 74.566406 135.496094 76.082031 135.496094 77.59375 C 135.496094 78.59375 135.628906 79.609375 135.878906 80.488281 C 136.128906 81.488281 136.511719 82.367188 137.011719 83.25 C 137.511719 84.132812 138.011719 84.878906 138.777344 85.511719 C 139.414062 86.144531 140.046875 86.777344 140.929688 87.277344 C 142.695312 87.410156 144.460938 87.777344 145.960938 88.542969 C 147.726562 89.289062 149.242188 90.304688 150.492188 91.550781 C 151.875 92.933594 153.007812 94.5625 153.773438 96.460938 C 154.523438 98.089844 154.90625 100.101562 154.90625 102.117188 C 154.90625 103.113281 154.773438 104.265625 154.523438 105.261719 C 154.273438 106.390625 153.890625 107.40625 153.523438 108.40625 C 153.023438 109.402344 152.390625 110.285156 151.757812 111.164062 C 151.125 112.046875 150.375 112.796875 149.492188 113.429688 C 149.109375 113.8125 148.742188 113.925781 148.226562 113.925781 C 147.839844 113.792969 147.476562 113.675781 147.09375 113.292969 C 146.707031 112.910156 146.59375 112.410156 146.707031 112.027344 C 146.707031 111.53125 146.957031 111.148438 147.207031 110.898438 L 147.34375 110.761719 C 147.976562 110.265625 148.476562 109.632812 148.972656 109 C 149.472656 108.367188 149.972656 107.617188 150.355469 106.851562 C 150.605469 106.105469 150.855469 105.335938 151.105469 104.457031 C 151.238281 103.707031 151.355469 102.824219 151.355469 102.058594 C 151.355469 100.429688 151.105469 99.050781 150.472656 97.648438 C 149.972656 96.269531 149.089844 95.003906 148.070312 94.007812 C 146.9375 92.875 145.671875 92.128906 144.289062 91.496094 C 143.023438 90.996094 141.523438 90.613281 140.007812 90.613281 C 139.125 90.613281 138.375 90.746094 137.742188 90.863281 C 136.992188 90.996094 136.226562 91.246094 135.476562 91.609375 C 134.84375 91.859375 134.09375 92.242188 133.460938 92.605469 C 132.828125 93.105469 132.328125 93.605469 131.695312 94.121094 C 131.445312 94.503906 130.945312 94.621094 130.5625 94.621094 C 130.0625 94.621094 129.679688 94.484375 129.292969 94.238281 C 128.910156 93.851562 128.796875 93.355469 128.796875 92.972656 C 128.660156 92.472656 128.929688 92.089844 129.179688 91.707031 C 129.929688 90.957031 130.695312 90.324219 131.445312 89.828125 C 132.328125 89.195312 133.210938 88.695312 134.09375 88.3125 C 134.59375 88.0625 135.09375 87.929688 135.609375 87.8125 C 135.746094 87.679688 135.859375 87.679688 135.996094 87.679688 C 135.746094 87.429688 135.496094 87.046875 135.246094 86.796875 C 134.863281 86.164062 134.363281 85.53125 133.980469 84.917969 C 133.34375 83.789062 132.847656 82.65625 132.597656 81.523438 C 132.347656 80.644531 132.097656 79.761719 132.097656 78.878906 C 130.582031 79.628906 129.199219 80.644531 127.929688 81.640625 C 126.414062 83.019531 125.167969 84.402344 124.035156 86.050781 C 122.765625 87.929688 121.769531 90.074219 121.132812 92.222656 C 120.386719 94.371094 120.136719 96.632812 120.136719 98.894531 C 120.136719 100.523438 120.269531 102.175781 120.636719 103.804688 C 121.019531 105.433594 121.519531 106.949219 122.152344 108.460938 L 122.285156 108.597656 L 122.285156 108.460938 C 122.535156 109.210938 122.785156 109.726562 123.167969 110.339844 C 123.554688 110.972656 123.917969 111.472656 124.300781 112.105469 C 125.300781 113.621094 126.566406 114.867188 127.949219 116.132812 C 128.949219 116.878906 129.964844 117.644531 130.964844 118.394531 C 130.832031 117.894531 130.714844 117.398438 130.714844 117.011719 C 130.464844 115.882812 130.332031 114.867188 130.332031 113.871094 C 130.332031 113.121094 130.464844 112.488281 130.582031 111.722656 C 130.582031 110.972656 130.714844 110.339844 130.964844 109.574219 C 131.097656 108.941406 131.347656 108.195312 131.597656 107.5625 C 131.847656 106.929688 132.230469 106.296875 132.597656 105.683594 C 132.847656 105.300781 133.230469 104.933594 133.59375 104.800781 C 134.09375 104.667969 134.476562 104.800781 134.976562 105.050781 C 135.363281 105.300781 135.609375 105.683594 135.726562 106.046875 C 135.859375 106.546875 135.859375 106.929688 135.589844 107.425781 C 135.34375 107.8125 135.09375 108.308594 134.84375 108.941406 C 134.59375 109.441406 134.457031 109.9375 134.34375 110.457031 C 134.09375 111.089844 134.09375 111.585938 133.960938 112.085938 C 133.824219 112.71875 133.824219 113.21875 133.824219 113.851562 C 133.824219 115.117188 134.074219 116.246094 134.324219 117.492188 C 134.707031 118.625 135.207031 119.640625 135.839844 120.636719 C 135.976562 120.769531 136.089844 120.886719 136.226562 121.019531 C 136.359375 121.15625 136.359375 121.402344 136.476562 121.519531 C 136.609375 121.769531 136.722656 122.015625 136.972656 122.152344 C 137.109375 122.402344 137.359375 122.648438 137.609375 122.898438 C 138.875 124.164062 140.257812 125.046875 141.773438 125.660156 C 143.289062 126.292969 144.921875 126.65625 146.6875 126.65625 C 147.074219 126.65625 147.324219 126.65625 147.574219 126.65625 C 147.820312 126.65625 148.207031 126.523438 148.457031 126.523438 C 148.707031 126.523438 148.953125 126.523438 149.203125 126.390625 C 149.453125 126.390625 149.839844 126.253906 150.085938 126.253906 C 150.585938 126.121094 150.972656 126.121094 151.355469 126.390625 C 151.738281 126.636719 152.105469 127.023438 152.238281 127.386719 C 152.371094 127.882812 152.238281 128.382812 151.988281 128.765625 C 151.855469 129.148438 151.488281 129.398438 150.988281 129.515625 C 150.605469 129.648438 150.355469 129.761719 149.992188 129.761719 C 149.609375 129.898438 149.242188 129.898438 148.859375 130.011719 C 148.476562 130.011719 148.109375 130.011719 147.859375 130.011719 C 147.476562 130.148438 147.113281 130.148438 146.726562 130.148438 C 144.578125 130.148438 142.445312 129.648438 140.546875 128.882812 C 138.53125 128 136.648438 126.867188 135.132812 125.355469 C 134.882812 124.96875 134.496094 124.605469 134.246094 124.355469 C 134 123.972656 133.75 123.722656 133.5 123.359375 C 131.097656 122.476562 128.832031 121.210938 126.816406 119.71875 C 124.800781 118.085938 122.917969 116.1875 121.519531 114.0625 C 121.269531 113.8125 121.019531 113.429688 120.882812 113.179688 L 120.75 113.429688 C 120.5 113.925781 120.367188 114.425781 120.25 115.058594 C 120.117188 115.804688 119.867188 116.6875 119.867188 117.703125 C 119.734375 118.585938 119.617188 119.46875 119.617188 120.347656 C 119.617188 122.746094 120 125.007812 120.75 127.136719 C 121.382812 129.398438 122.382812 131.410156 123.765625 133.308594 C 124.898438 134.941406 126.28125 136.453125 127.796875 137.835938 C 129.0625 138.832031 130.445312 139.847656 131.964844 140.59375 C 132.097656 140.210938 132.097656 139.847656 132.097656 139.464844 C 132.230469 138.832031 132.347656 138.199219 132.480469 137.585938 C 132.730469 136.953125 132.867188 136.320312 133.113281 135.707031 C 133.363281 135.207031 133.613281 134.574219 134 134.078125 C 134.246094 133.578125 134.632812 133.328125 134.996094 133.195312 C 135.496094 133.0625 135.996094 133.195312 136.378906 133.328125 C 136.761719 133.578125 137.128906 133.960938 137.128906 134.460938 C 137.261719 134.84375 137.261719 135.34375 136.992188 135.726562 C 136.742188 136.222656 136.496094 136.609375 136.359375 137.105469 C 136.109375 137.605469 135.976562 137.988281 135.859375 138.488281 C 135.726562 138.984375 135.609375 139.484375 135.609375 140 C 135.476562 140.5 135.476562 141 135.476562 141.515625 C 135.476562 143.03125 135.726562 144.527344 136.359375 145.792969 C 136.859375 147.171875 137.742188 148.4375 138.761719 149.570312 C 139.890625 150.566406 141.160156 151.449219 142.542969 151.964844 C 143.808594 152.597656 145.308594 152.847656 146.824219 152.847656 C 148.457031 152.847656 149.839844 152.597656 151.238281 151.964844 C 152.621094 151.464844 153.890625 150.585938 154.886719 149.570312 C 156.019531 148.4375 156.769531 147.171875 157.402344 145.792969 C 157.941406 144.410156 158.304688 142.894531 158.304688 141.382812 Z M 158.304688 141.382812 " clip-rule="nonzero"/></clipPath><linearGradient x1="14681.577814" gradientTransform="matrix(0.0107846, 0, 0, 0.0107692, -42.030863, 50.929719)" y1="5426.729" x2="18903.647652" gradientUnits="userSpaceOnUse" y2="5426.729" id="cbc009c284"><stop stop-opacity="1" stop-color="rgb(0%, 77.249146%, 100%)" offset="0"/><stop stop-opacity="1" stop-color="rgb(0%, 77.148438%, 100%)" offset="0.0078125"/><stop stop-opacity="1" stop-color="rgb(0%, 76.921082%, 100%)" offset="0.015625"/><stop stop-opacity="1" stop-color="rgb(0%, 76.66626%, 100%)" offset="0.0234375"/><stop stop-opacity="1" stop-color="rgb(0%, 76.411438%, 100%)" offset="0.03125"/><stop stop-opacity="1" stop-color="rgb(0%, 76.156616%, 100%)" offset="0.0390625"/><stop stop-opacity="1" stop-color="rgb(0%, 75.901794%, 100%)" offset="0.046875"/><stop stop-opacity="1" stop-color="rgb(0%, 75.646973%, 100%)" offset="0.0546875"/><stop stop-opacity="1" stop-color="rgb(0%, 75.392151%, 100%)" offset="0.0625"/><stop stop-opacity="1" stop-color="rgb(0%, 75.137329%, 100%)" offset="0.0703125"/><stop stop-opacity="1" stop-color="rgb(0%, 74.882507%, 100%)" offset="0.078125"/><stop stop-opacity="1" stop-color="rgb(0%, 74.627686%, 100%)" offset="0.0859375"/><stop stop-opacity="1" stop-color="rgb(0%, 74.372864%, 100%)" offset="0.09375"/><stop stop-opacity="1" stop-color="rgb(0%, 74.118042%, 100%)" offset="0.101563"/><stop stop-opacity="1" stop-color="rgb(0%, 73.86322%, 100%)" offset="0.109375"/><stop stop-opacity="1" stop-color="rgb(0%, 73.608398%, 100%)" offset="0.117188"/><stop stop-opacity="1" stop-color="rgb(0%, 73.353577%, 100%)" offset="0.125"/><stop stop-opacity="1" stop-color="rgb(0%, 73.098755%, 100%)" offset="0.132812"/><stop stop-opacity="1" stop-color="rgb(0%, 72.843933%, 100%)" offset="0.140625"/><stop stop-opacity="1" stop-color="rgb(0%, 72.589111%, 100%)" offset="0.148438"/><stop stop-opacity="1" stop-color="rgb(0%, 72.33429%, 100%)" offset="0.15625"/><stop stop-opacity="1" stop-color="rgb(0%, 72.079468%, 100%)" offset="0.164062"/><stop stop-opacity="1" stop-color="rgb(0%, 71.824646%, 100%)" offset="0.171875"/><stop stop-opacity="1" stop-color="rgb(0%, 71.569824%, 100%)" offset="0.179688"/><stop stop-opacity="1" stop-color="rgb(0%, 71.315002%, 100%)" offset="0.1875"/><stop stop-opacity="1" stop-color="rgb(0%, 71.060181%, 100%)" offset="0.195312"/><stop stop-opacity="1" stop-color="rgb(0%, 70.805359%, 100%)" offset="0.203125"/><stop stop-opacity="1" stop-color="rgb(0%, 70.550537%, 100%)" offset="0.210938"/><stop stop-opacity="1" stop-color="rgb(0%, 70.295715%, 100%)" offset="0.21875"/><stop stop-opacity="1" stop-color="rgb(0%, 70.040894%, 100%)" offset="0.226562"/><stop stop-opacity="1" stop-color="rgb(0%, 69.786072%, 100%)" offset="0.234375"/><stop stop-opacity="1" stop-color="rgb(0%, 69.53125%, 100%)" offset="0.242188"/><stop stop-opacity="1" stop-color="rgb(0%, 69.276428%, 100%)" offset="0.25"/><stop stop-opacity="1" stop-color="rgb(0%, 69.021606%, 100%)" offset="0.257812"/><stop stop-opacity="1" stop-color="rgb(0%, 68.766785%, 100%)" offset="0.265625"/><stop stop-opacity="1" stop-color="rgb(0%, 68.511963%, 100%)" offset="0.273438"/><stop stop-opacity="1" stop-color="rgb(0%, 68.257141%, 100%)" offset="0.28125"/><stop stop-opacity="1" stop-color="rgb(0%, 68.002319%, 100%)" offset="0.289063"/><stop stop-opacity="1" stop-color="rgb(0%, 67.747498%, 100%)" offset="0.296875"/><stop stop-opacity="1" stop-color="rgb(0%, 67.492676%, 100%)" offset="0.304688"/><stop stop-opacity="1" stop-color="rgb(0%, 67.237854%, 100%)" offset="0.3125"/><stop stop-opacity="1" stop-color="rgb(0%, 66.983032%, 100%)" offset="0.320313"/><stop stop-opacity="1" stop-color="rgb(0%, 66.72821%, 100%)" offset="0.328125"/><stop stop-opacity="1" stop-color="rgb(0%, 66.473389%, 100%)" offset="0.335938"/><stop stop-opacity="1" stop-color="rgb(0%, 66.218567%, 100%)" offset="0.34375"/><stop stop-opacity="1" stop-color="rgb(0%, 65.963745%, 100%)" offset="0.351563"/><stop stop-opacity="1" stop-color="rgb(0%, 65.708923%, 100%)" offset="0.359375"/><stop stop-opacity="1" stop-color="rgb(0%, 65.454102%, 100%)" offset="0.367188"/><stop stop-opacity="1" stop-color="rgb(0%, 65.19928%, 100%)" offset="0.375"/><stop stop-opacity="1" stop-color="rgb(0%, 64.944458%, 100%)" offset="0.382813"/><stop stop-opacity="1" stop-color="rgb(0%, 64.689636%, 100%)" offset="0.390625"/><stop stop-opacity="1" stop-color="rgb(0%, 64.434814%, 100%)" offset="0.398438"/><stop stop-opacity="1" stop-color="rgb(0%, 64.179993%, 100%)" offset="0.40625"/><stop stop-opacity="1" stop-color="rgb(0%, 63.925171%, 100%)" offset="0.414063"/><stop stop-opacity="1" stop-color="rgb(0%, 63.670349%, 100%)" offset="0.421875"/><stop stop-opacity="1" stop-color="rgb(0%, 63.415527%, 100%)" offset="0.429688"/><stop stop-opacity="1" stop-color="rgb(0%, 63.160706%, 100%)" offset="0.4375"/><stop stop-opacity="1" stop-color="rgb(0%, 62.905884%, 100%)" offset="0.445313"/><stop stop-opacity="1" stop-color="rgb(0%, 62.651062%, 100%)" offset="0.453125"/><stop stop-opacity="1" stop-color="rgb(0%, 62.39624%, 100%)" offset="0.460938"/><stop stop-opacity="1" stop-color="rgb(0%, 62.141418%, 100%)" offset="0.46875"/><stop stop-opacity="1" stop-color="rgb(0%, 61.886597%, 100%)" offset="0.476563"/><stop stop-opacity="1" stop-color="rgb(0%, 61.631775%, 100%)" offset="0.484375"/><stop stop-opacity="1" stop-color="rgb(0%, 61.376953%, 100%)" offset="0.492188"/><stop stop-opacity="1" stop-color="rgb(0%, 61.122131%, 100%)" offset="0.5"/><stop stop-opacity="1" stop-color="rgb(0%, 60.86731%, 100%)" offset="0.507812"/><stop stop-opacity="1" stop-color="rgb(0%, 60.612488%, 100%)" offset="0.515625"/><stop stop-opacity="1" stop-color="rgb(0%, 60.357666%, 100%)" offset="0.523438"/><stop stop-opacity="1" stop-color="rgb(0%, 60.102844%, 100%)" offset="0.53125"/><stop stop-opacity="1" stop-color="rgb(0%, 59.848022%, 100%)" offset="0.539062"/><stop stop-opacity="1" stop-color="rgb(0%, 59.593201%, 100%)" offset="0.546875"/><stop stop-opacity="1" stop-color="rgb(0%, 59.338379%, 100%)" offset="0.554688"/><stop stop-opacity="1" stop-color="rgb(0%, 59.083557%, 100%)" offset="0.5625"/><stop stop-opacity="1" stop-color="rgb(0%, 58.828735%, 100%)" offset="0.570312"/><stop stop-opacity="1" stop-color="rgb(0%, 58.573914%, 100%)" offset="0.578125"/><stop stop-opacity="1" stop-color="rgb(0%, 58.319092%, 100%)" offset="0.585938"/><stop stop-opacity="1" stop-color="rgb(0%, 58.06427%, 100%)" offset="0.59375"/><stop stop-opacity="1" stop-color="rgb(0%, 57.809448%, 100%)" offset="0.601562"/><stop stop-opacity="1" stop-color="rgb(0%, 57.554626%, 100%)" offset="0.609375"/><stop stop-opacity="1" stop-color="rgb(0%, 57.299805%, 100%)" offset="0.617187"/><stop stop-opacity="1" stop-color="rgb(0%, 57.044983%, 100%)" offset="0.625"/><stop stop-opacity="1" stop-color="rgb(0%, 56.790161%, 100%)" offset="0.632813"/><stop stop-opacity="1" stop-color="rgb(0%, 56.535339%, 100%)" offset="0.640625"/><stop stop-opacity="1" stop-color="rgb(0%, 56.280518%, 100%)" offset="0.648438"/><stop stop-opacity="1" stop-color="rgb(0%, 56.025696%, 100%)" offset="0.65625"/><stop stop-opacity="1" stop-color="rgb(0%, 55.770874%, 100%)" offset="0.664062"/><stop stop-opacity="1" stop-color="rgb(0%, 55.516052%, 100%)" offset="0.671875"/><stop stop-opacity="1" stop-color="rgb(0%, 55.26123%, 100%)" offset="0.679688"/><stop stop-opacity="1" stop-color="rgb(0%, 55.006409%, 100%)" offset="0.6875"/><stop stop-opacity="1" stop-color="rgb(0%, 54.751587%, 100%)" offset="0.695312"/><stop stop-opacity="1" stop-color="rgb(0%, 54.496765%, 100%)" offset="0.703125"/><stop stop-opacity="1" stop-color="rgb(0%, 54.241943%, 100%)" offset="0.710938"/><stop stop-opacity="1" stop-color="rgb(0%, 53.987122%, 100%)" offset="0.71875"/><stop stop-opacity="1" stop-color="rgb(0%, 53.7323%, 100%)" offset="0.726562"/><stop stop-opacity="1" stop-color="rgb(0%, 53.477478%, 100%)" offset="0.734375"/><stop stop-opacity="1" stop-color="rgb(0%, 53.222656%, 100%)" offset="0.742188"/><stop stop-opacity="1" stop-color="rgb(0%, 52.967834%, 100%)" offset="0.75"/><stop stop-opacity="1" stop-color="rgb(0%, 52.713013%, 100%)" offset="0.757812"/><stop stop-opacity="1" stop-color="rgb(0%, 52.458191%, 100%)" offset="0.765625"/><stop stop-opacity="1" stop-color="rgb(0%, 52.203369%, 100%)" offset="0.773438"/><stop stop-opacity="1" stop-color="rgb(0%, 51.948547%, 100%)" offset="0.78125"/><stop stop-opacity="1" stop-color="rgb(0%, 51.693726%, 100%)" offset="0.789062"/><stop stop-opacity="1" stop-color="rgb(0%, 51.438904%, 100%)" offset="0.796875"/><stop stop-opacity="1" stop-color="rgb(0%, 51.184082%, 100%)" offset="0.804688"/><stop stop-opacity="1" stop-color="rgb(0%, 50.92926%, 100%)" offset="0.8125"/><stop stop-opacity="1" stop-color="rgb(0%, 50.674438%, 100%)" offset="0.820312"/><stop stop-opacity="1" stop-color="rgb(0%, 50.419617%, 100%)" offset="0.828125"/><stop stop-opacity="1" stop-color="rgb(0%, 50.164795%, 100%)" offset="0.835938"/><stop stop-opacity="1" stop-color="rgb(0%, 49.909973%, 100%)" offset="0.84375"/><stop stop-opacity="1" stop-color="rgb(0%, 49.655151%, 100%)" offset="0.851562"/><stop stop-opacity="1" stop-color="rgb(0%, 49.40033%, 100%)" offset="0.859375"/><stop stop-opacity="1" stop-color="rgb(0%, 49.145508%, 100%)" offset="0.867187"/><stop stop-opacity="1" stop-color="rgb(0%, 48.890686%, 100%)" offset="0.875"/><stop stop-opacity="1" stop-color="rgb(0%, 48.635864%, 100%)" offset="0.882813"/><stop stop-opacity="1" stop-color="rgb(0%, 48.381042%, 100%)" offset="0.890625"/><stop stop-opacity="1" stop-color="rgb(0%, 48.126221%, 100%)" offset="0.898438"/><stop stop-opacity="1" stop-color="rgb(0%, 47.871399%, 100%)" offset="0.90625"/><stop stop-opacity="1" stop-color="rgb(0%, 47.616577%, 100%)" offset="0.914062"/><stop stop-opacity="1" stop-color="rgb(0%, 47.361755%, 100%)" offset="0.921875"/><stop stop-opacity="1" stop-color="rgb(0%, 47.106934%, 100%)" offset="0.929688"/><stop stop-opacity="1" stop-color="rgb(0%, 46.852112%, 100%)" offset="0.9375"/><stop stop-opacity="1" stop-color="rgb(0%, 46.59729%, 100%)" offset="0.945312"/><stop stop-opacity="1" stop-color="rgb(0%, 46.342468%, 100%)" offset="0.953125"/><stop stop-opacity="1" stop-color="rgb(0%, 46.087646%, 100%)" offset="0.960938"/><stop stop-opacity="1" stop-color="rgb(0%, 45.832825%, 100%)" offset="0.96875"/><stop stop-opacity="1" stop-color="rgb(0%, 45.578003%, 100%)" offset="0.976562"/><stop stop-opacity="1" stop-color="rgb(0%, 45.323181%, 100%)" offset="0.984375"/><stop stop-opacity="1" stop-color="rgb(0%, 45.068359%, 100%)" offset="0.992188"/><stop stop-opacity="1" stop-color="rgb(0%, 44.825745%, 100%)" offset="1"/></linearGradient><clipPath id="fee4832257"><path d="M 166 62.488281 L 212.296875 62.488281 L 212.296875 156.238281 L 166 156.238281 Z M 166 62.488281 " clip-rule="nonzero"/></clipPath><clipPath id="e06e030fcd"><path d="M 166.753906 77.59375 L 166.753906 141.382812 C 166.753906 143.394531 167.136719 145.273438 167.886719 147.039062 C 168.636719 148.800781 169.652344 150.429688 171.035156 151.8125 C 172.417969 153.191406 174.050781 154.324219 175.949219 155.089844 C 177.714844 155.835938 179.597656 156.222656 181.613281 156.222656 C 185.644531 156.222656 189.429688 154.589844 192 151.8125 C 193.132812 150.816406 194.015625 149.550781 194.652344 148.285156 C 195.285156 147.152344 195.785156 145.773438 196.035156 144.507812 C 198.300781 143.511719 200.449219 142.246094 202.332031 140.730469 C 204.347656 139.214844 206.113281 137.335938 207.496094 135.1875 C 209.011719 133.042969 210.261719 130.664062 211.027344 128.019531 C 211.777344 125.621094 212.296875 122.996094 212.296875 120.214844 C 212.296875 119.21875 212.160156 118.203125 212.046875 117.070312 C 211.910156 116.074219 211.796875 115.058594 211.546875 114.0625 C 211.296875 113.179688 211.046875 112.296875 210.664062 111.414062 C 210.414062 110.53125 210.03125 109.785156 209.78125 109.019531 C 210.414062 107.390625 210.914062 105.738281 211.296875 104.109375 C 211.679688 102.347656 211.796875 100.582031 211.796875 98.703125 C 211.796875 96.058594 211.414062 93.414062 210.664062 91.035156 C 209.914062 88.523438 208.78125 86.125 207.265625 84 C 205.882812 81.984375 204.25 80.105469 202.234375 78.457031 C 200.46875 76.941406 198.453125 75.695312 196.1875 74.679688 C 195.9375 73.300781 195.4375 71.917969 194.804688 70.65625 C 194.171875 69.140625 193.171875 67.894531 192.039062 66.761719 C 190.65625 65.496094 189.023438 64.367188 187.257812 63.617188 C 185.453125 62.890625 183.574219 62.507812 181.554688 62.507812 C 179.539062 62.507812 177.660156 62.890625 175.890625 63.636719 C 174.011719 64.386719 172.359375 65.515625 170.976562 66.78125 C 169.59375 68.160156 168.578125 69.792969 167.828125 71.691406 C 167.136719 73.703125 166.753906 75.582031 166.753906 77.59375 Z M 170.152344 141.382812 L 170.152344 77.59375 C 170.152344 76.082031 170.535156 74.585938 171.035156 73.183594 C 171.667969 71.804688 172.550781 70.539062 173.550781 69.542969 C 174.546875 68.546875 175.816406 67.664062 177.199219 67.03125 C 178.582031 66.53125 180.097656 66.28125 181.613281 66.28125 C 183.132812 66.28125 184.628906 66.53125 185.894531 67.03125 C 187.277344 67.664062 188.546875 68.546875 189.679688 69.542969 C 190.675781 70.539062 191.558594 71.804688 192.078125 73.183594 C 192.710938 74.566406 192.960938 76.082031 192.960938 77.59375 C 192.960938 78.59375 192.828125 79.609375 192.578125 80.488281 C 192.328125 81.488281 191.945312 82.367188 191.445312 83.25 C 190.945312 84.132812 190.445312 84.878906 189.679688 85.511719 C 189.042969 86.144531 188.410156 86.777344 187.664062 87.277344 C 185.78125 87.410156 184.015625 87.777344 182.496094 88.542969 C 180.730469 89.289062 179.214844 90.304688 177.964844 91.550781 C 176.582031 92.933594 175.449219 94.5625 174.683594 96.460938 C 174.050781 98.089844 173.550781 100.101562 173.550781 102.117188 C 173.550781 103.113281 173.683594 104.265625 173.933594 105.261719 C 174.183594 106.390625 174.566406 107.40625 175.066406 108.40625 C 175.449219 109.402344 176.066406 110.285156 176.699219 111.164062 C 177.332031 112.046875 178.082031 112.796875 178.964844 113.429688 C 179.347656 113.8125 179.847656 113.925781 180.230469 113.925781 C 180.617188 113.792969 181.113281 113.675781 181.363281 113.292969 C 181.75 112.910156 181.863281 112.410156 181.863281 112.027344 C 181.730469 111.53125 181.613281 111.148438 181.230469 110.898438 L 181.230469 110.820312 C 180.480469 110.324219 179.964844 109.691406 179.464844 109.058594 C 178.964844 108.425781 178.464844 107.675781 178.195312 106.910156 C 177.8125 106.160156 177.5625 105.394531 177.3125 104.511719 C 177.179688 103.765625 177.0625 102.882812 177.0625 102.117188 C 177.0625 100.488281 177.449219 99.105469 177.945312 97.707031 C 178.582031 96.328125 179.328125 95.0625 180.460938 94.0625 C 181.460938 92.933594 182.726562 92.183594 184.109375 91.550781 C 185.492188 91.054688 186.875 90.671875 188.527344 90.671875 C 189.273438 90.671875 190.042969 90.804688 190.792969 90.917969 C 191.539062 91.054688 192.175781 91.304688 192.941406 91.667969 C 193.691406 91.917969 194.324219 92.300781 194.957031 92.664062 C 195.589844 93.164062 196.226562 93.660156 196.722656 94.179688 C 196.972656 94.5625 197.472656 94.675781 197.992188 94.675781 C 198.375 94.675781 198.875 94.542969 199.125 94.292969 C 199.507812 93.910156 199.757812 93.414062 199.757812 93.027344 C 199.757812 92.53125 199.507812 92.148438 199.257812 91.761719 C 198.511719 91.015625 197.742188 90.382812 196.992188 89.882812 C 196.109375 89.25 195.226562 88.753906 194.34375 88.371094 C 193.84375 88.121094 193.34375 87.984375 192.828125 87.871094 C 192.691406 87.738281 192.578125 87.738281 192.441406 87.738281 C 192.691406 87.488281 192.941406 87.105469 193.191406 86.855469 C 193.691406 86.222656 194.074219 85.589844 194.457031 84.976562 C 195.09375 83.84375 195.589844 82.714844 195.976562 81.582031 C 196.226562 80.699219 196.359375 79.820312 196.359375 78.9375 C 197.875 79.683594 199.257812 80.699219 200.527344 81.699219 C 202.042969 83.078125 203.289062 84.457031 204.421875 86.105469 C 205.691406 87.984375 206.6875 90.132812 207.4375 92.28125 C 208.070312 94.429688 208.320312 96.691406 208.320312 98.953125 C 208.320312 100.582031 208.1875 102.230469 207.820312 103.859375 C 207.4375 105.492188 206.9375 107.003906 206.304688 108.519531 L 206.304688 108.652344 L 206.304688 108.519531 C 205.921875 109.269531 205.671875 109.785156 205.308594 110.398438 C 204.921875 111.03125 204.558594 111.53125 204.175781 112.164062 C 203.175781 113.675781 201.910156 114.921875 200.527344 116.1875 C 199.644531 116.9375 198.511719 117.703125 197.511719 118.453125 C 197.644531 117.953125 197.761719 117.453125 197.761719 117.070312 C 198.011719 115.941406 198.144531 114.921875 198.144531 113.925781 C 198.144531 113.179688 198.011719 112.546875 198.011719 111.78125 C 197.875 111.03125 197.761719 110.398438 197.511719 109.632812 C 197.378906 109 197.128906 108.25 196.878906 107.617188 C 196.628906 106.984375 196.246094 106.355469 195.878906 105.738281 C 195.628906 105.355469 195.246094 104.992188 194.882812 104.859375 C 194.496094 104.722656 194 104.859375 193.5 105.105469 L 193.632812 105.105469 C 193.132812 105.355469 192.882812 105.738281 192.75 106.105469 C 192.617188 106.601562 192.617188 106.984375 192.882812 107.484375 C 193.269531 107.867188 193.519531 108.367188 193.632812 109 C 193.882812 109.496094 194.015625 109.996094 194.265625 110.515625 C 194.402344 111.148438 194.515625 111.644531 194.515625 112.144531 C 194.652344 112.777344 194.652344 113.273438 194.652344 113.90625 C 194.652344 115.171875 194.515625 116.304688 194.152344 117.550781 C 193.769531 118.679688 193.269531 119.699219 192.769531 120.695312 C 192.519531 120.828125 192.386719 120.945312 192.269531 121.078125 C 192.269531 121.210938 192.136719 121.460938 192.019531 121.578125 C 191.886719 121.824219 191.769531 122.074219 191.519531 122.210938 C 191.386719 122.457031 191.136719 122.707031 190.886719 122.957031 C 189.753906 124.222656 188.238281 125.105469 186.722656 125.71875 C 185.203125 126.351562 183.574219 126.714844 181.804688 126.714844 C 181.421875 126.714844 181.171875 126.714844 180.921875 126.714844 C 180.671875 126.714844 180.421875 126.582031 180.039062 126.582031 C 179.789062 126.582031 179.539062 126.582031 179.289062 126.445312 C 179.042969 126.445312 178.792969 126.3125 178.40625 126.3125 C 178.023438 126.179688 177.523438 126.179688 177.140625 126.445312 C 176.757812 126.695312 176.390625 127.078125 176.257812 127.441406 C 176.121094 127.941406 176.257812 128.441406 176.507812 128.824219 C 176.757812 129.207031 177.140625 129.457031 177.503906 129.570312 C 177.890625 129.707031 178.253906 129.820312 178.503906 129.820312 C 178.886719 129.953125 179.253906 129.953125 179.636719 130.070312 C 180.019531 130.070312 180.386719 130.070312 180.636719 130.070312 C 181.019531 130.203125 181.382812 130.203125 181.769531 130.203125 C 183.917969 130.203125 186.050781 129.707031 188.066406 128.9375 C 189.945312 128.058594 191.847656 126.925781 193.363281 125.410156 C 193.613281 125.027344 194 124.664062 194.246094 124.414062 C 194.496094 124.03125 194.746094 123.78125 194.996094 123.417969 C 197.398438 122.535156 199.664062 121.269531 201.679688 119.773438 C 203.695312 118.144531 205.574219 116.246094 207.09375 114.117188 C 207.226562 113.871094 207.476562 113.484375 207.726562 113.238281 L 207.726562 113.484375 C 207.976562 113.984375 208.109375 114.484375 208.226562 115.117188 C 208.476562 115.863281 208.609375 116.746094 208.722656 117.761719 C 208.722656 118.644531 208.859375 119.523438 208.859375 120.40625 C 208.859375 122.804688 208.476562 125.066406 207.859375 127.195312 C 207.113281 129.457031 206.09375 131.46875 204.847656 133.367188 C 203.578125 134.996094 202.332031 136.511719 200.679688 137.890625 C 199.414062 138.890625 198.03125 139.90625 196.511719 140.652344 C 196.511719 140.269531 196.378906 139.90625 196.378906 139.523438 C 196.246094 138.890625 196.128906 138.257812 195.996094 137.644531 C 195.859375 137.011719 195.609375 136.378906 195.363281 135.765625 C 195.113281 135.265625 194.863281 134.632812 194.476562 134.132812 C 194.230469 133.636719 193.84375 133.386719 193.480469 133.253906 C 192.980469 133.117188 192.480469 133.253906 192.097656 133.386719 C 191.714844 133.636719 191.464844 134.019531 191.347656 134.519531 C 191.214844 134.902344 191.214844 135.398438 191.484375 135.785156 C 191.734375 136.28125 191.980469 136.664062 192.117188 137.164062 C 192.367188 137.664062 192.5 138.046875 192.617188 138.542969 C 192.75 139.042969 192.867188 139.542969 192.867188 140.058594 C 193 140.558594 193 141.054688 193 141.574219 C 193 143.089844 192.75 144.582031 192.117188 145.847656 C 191.617188 147.230469 190.734375 148.496094 189.714844 149.625 C 188.582031 150.621094 187.316406 151.503906 185.933594 152.023438 C 184.667969 152.65625 183.167969 152.90625 181.652344 152.90625 C 180.136719 152.90625 178.636719 152.65625 177.238281 152.023438 C 175.855469 151.523438 174.585938 150.640625 173.589844 149.625 C 172.589844 148.496094 171.707031 147.230469 171.074219 145.847656 C 170.535156 144.410156 170.152344 142.894531 170.152344 141.382812 Z M 170.152344 141.382812 " clip-rule="nonzero"/></clipPath><linearGradient x1="19359.406728" gradientTransform="matrix(0.0107846, 0, 0, 0.0107692, -42.030863, 50.929719)" y1="5426.729" x2="23582.300716" gradientUnits="userSpaceOnUse" y2="5426.729" id="1d2f2e96a9"><stop stop-opacity="1" stop-color="rgb(95.289612%, 17.649841%, 47.059631%)" offset="0"/><stop stop-opacity="1" stop-color="rgb(95.213318%, 17.764282%, 47.254944%)" offset="0.0078125"/><stop stop-opacity="1" stop-color="rgb(95.057678%, 17.996216%, 47.651672%)" offset="0.0117188"/><stop stop-opacity="1" stop-color="rgb(94.979858%, 18.115234%, 47.853088%)" offset="0.015625"/><stop stop-opacity="1" stop-color="rgb(94.902039%, 18.232727%, 48.052979%)" offset="0.0195312"/><stop stop-opacity="1" stop-color="rgb(94.824219%, 18.351746%, 48.254395%)" offset="0.0234375"/><stop stop-opacity="1" stop-color="rgb(94.744873%, 18.469238%, 48.455811%)" offset="0.0273438"/><stop stop-opacity="1" stop-color="rgb(94.667053%, 18.588257%, 48.657227%)" offset="0.03125"/><stop stop-opacity="1" stop-color="rgb(94.587708%, 18.70575%, 48.858643%)" offset="0.0351563"/><stop stop-opacity="1" stop-color="rgb(94.509888%, 18.824768%, 49.060059%)" offset="0.0390625"/><stop stop-opacity="1" stop-color="rgb(94.432068%, 18.942261%, 49.259949%)" offset="0.0429688"/><stop stop-opacity="1" stop-color="rgb(94.354248%, 19.061279%, 49.461365%)" offset="0.046875"/><stop stop-opacity="1" stop-color="rgb(94.274902%, 19.178772%, 49.662781%)" offset="0.0507813"/><stop stop-opacity="1" stop-color="rgb(94.197083%, 19.297791%, 49.864197%)" offset="0.0546875"/><stop stop-opacity="1" stop-color="rgb(94.117737%, 19.415283%, 50.065613%)" offset="0.0585938"/><stop stop-opacity="1" stop-color="rgb(94.039917%, 19.534302%, 50.267029%)" offset="0.0625"/><stop stop-opacity="1" stop-color="rgb(93.962097%, 19.651794%, 50.466919%)" offset="0.0664062"/><stop stop-opacity="1" stop-color="rgb(93.884277%, 19.770813%, 50.668335%)" offset="0.0703125"/><stop stop-opacity="1" stop-color="rgb(93.804932%, 19.888306%, 50.869751%)" offset="0.0742188"/><stop stop-opacity="1" stop-color="rgb(93.727112%, 20.007324%, 51.071167%)" offset="0.078125"/><stop stop-opacity="1" stop-color="rgb(93.647766%, 20.124817%, 51.272583%)" offset="0.0820312"/><stop stop-opacity="1" stop-color="rgb(93.569946%, 20.243835%, 51.473999%)" offset="0.0859375"/><stop stop-opacity="1" stop-color="rgb(93.492126%, 20.361328%, 51.673889%)" offset="0.0898438"/><stop stop-opacity="1" stop-color="rgb(93.414307%, 20.480347%, 51.875305%)" offset="0.09375"/><stop stop-opacity="1" stop-color="rgb(93.334961%, 20.597839%, 52.076721%)" offset="0.0976562"/><stop stop-opacity="1" stop-color="rgb(93.257141%, 20.716858%, 52.278137%)" offset="0.101563"/><stop stop-opacity="1" stop-color="rgb(93.177795%, 20.834351%, 52.479553%)" offset="0.105469"/><stop stop-opacity="1" stop-color="rgb(93.099976%, 20.953369%, 52.680969%)" offset="0.109375"/><stop stop-opacity="1" stop-color="rgb(93.022156%, 21.070862%, 52.882385%)" offset="0.113281"/><stop stop-opacity="1" stop-color="rgb(92.944336%, 21.18988%, 53.083801%)" offset="0.117188"/><stop stop-opacity="1" stop-color="rgb(92.86499%, 21.307373%, 53.283691%)" offset="0.121094"/><stop stop-opacity="1" stop-color="rgb(92.78717%, 21.426392%, 53.485107%)" offset="0.125"/><stop stop-opacity="1" stop-color="rgb(92.707825%, 21.543884%, 53.686523%)" offset="0.128906"/><stop stop-opacity="1" stop-color="rgb(92.630005%, 21.662903%, 53.887939%)" offset="0.132812"/><stop stop-opacity="1" stop-color="rgb(92.552185%, 21.780396%, 54.089355%)" offset="0.136719"/><stop stop-opacity="1" stop-color="rgb(92.474365%, 21.899414%, 54.290771%)" offset="0.140625"/><stop stop-opacity="1" stop-color="rgb(92.39502%, 22.016907%, 54.490662%)" offset="0.144531"/><stop stop-opacity="1" stop-color="rgb(92.3172%, 22.135925%, 54.692078%)" offset="0.148438"/><stop stop-opacity="1" stop-color="rgb(92.237854%, 22.253418%, 54.893494%)" offset="0.152344"/><stop stop-opacity="1" stop-color="rgb(92.160034%, 22.372437%, 55.09491%)" offset="0.15625"/><stop stop-opacity="1" stop-color="rgb(92.082214%, 22.489929%, 55.296326%)" offset="0.160156"/><stop stop-opacity="1" stop-color="rgb(92.004395%, 22.608948%, 55.497742%)" offset="0.164062"/><stop stop-opacity="1" stop-color="rgb(91.925049%, 22.72644%, 55.697632%)" offset="0.167969"/><stop stop-opacity="1" stop-color="rgb(91.847229%, 22.843933%, 55.899048%)" offset="0.171875"/><stop stop-opacity="1" stop-color="rgb(91.767883%, 22.961426%, 56.100464%)" offset="0.175781"/><stop stop-opacity="1" stop-color="rgb(91.690063%, 23.080444%, 56.30188%)" offset="0.179688"/><stop stop-opacity="1" stop-color="rgb(91.612244%, 23.197937%, 56.503296%)" offset="0.183594"/><stop stop-opacity="1" stop-color="rgb(91.534424%, 23.316956%, 56.704712%)" offset="0.1875"/><stop stop-opacity="1" stop-color="rgb(91.455078%, 23.434448%, 56.904602%)" offset="0.191406"/><stop stop-opacity="1" stop-color="rgb(91.377258%, 23.553467%, 57.106018%)" offset="0.195312"/><stop stop-opacity="1" stop-color="rgb(91.297913%, 23.670959%, 57.307434%)" offset="0.199219"/><stop stop-opacity="1" stop-color="rgb(91.220093%, 23.789978%, 57.50885%)" offset="0.203125"/><stop stop-opacity="1" stop-color="rgb(91.142273%, 23.907471%, 57.710266%)" offset="0.207031"/><stop stop-opacity="1" stop-color="rgb(91.064453%, 24.026489%, 57.911682%)" offset="0.210938"/><stop stop-opacity="1" stop-color="rgb(90.985107%, 24.143982%, 58.111572%)" offset="0.214844"/><stop stop-opacity="1" stop-color="rgb(90.907288%, 24.263%, 58.312988%)" offset="0.21875"/><stop stop-opacity="1" stop-color="rgb(90.829468%, 24.380493%, 58.514404%)" offset="0.222656"/><stop stop-opacity="1" stop-color="rgb(90.751648%, 24.499512%, 58.71582%)" offset="0.226562"/><stop stop-opacity="1" stop-color="rgb(90.672302%, 24.617004%, 58.917236%)" offset="0.230469"/><stop stop-opacity="1" stop-color="rgb(90.594482%, 24.736023%, 59.118652%)" offset="0.234375"/><stop stop-opacity="1" stop-color="rgb(90.515137%, 24.853516%, 59.318542%)" offset="0.238281"/><stop stop-opacity="1" stop-color="rgb(90.437317%, 24.972534%, 59.519958%)" offset="0.242188"/><stop stop-opacity="1" stop-color="rgb(90.359497%, 25.090027%, 59.721375%)" offset="0.246094"/><stop stop-opacity="1" stop-color="rgb(90.281677%, 25.209045%, 59.922791%)" offset="0.25"/><stop stop-opacity="1" stop-color="rgb(90.202332%, 25.326538%, 60.124207%)" offset="0.253906"/><stop stop-opacity="1" stop-color="rgb(90.124512%, 25.445557%, 60.325623%)" offset="0.257812"/><stop stop-opacity="1" stop-color="rgb(90.045166%, 25.563049%, 60.527039%)" offset="0.261719"/><stop stop-opacity="1" stop-color="rgb(89.967346%, 25.682068%, 60.728455%)" offset="0.265625"/><stop stop-opacity="1" stop-color="rgb(89.889526%, 25.799561%, 60.928345%)" offset="0.269531"/><stop stop-opacity="1" stop-color="rgb(89.811707%, 25.918579%, 61.129761%)" offset="0.273438"/><stop stop-opacity="1" stop-color="rgb(89.732361%, 26.036072%, 61.331177%)" offset="0.277344"/><stop stop-opacity="1" stop-color="rgb(89.654541%, 26.15509%, 61.532593%)" offset="0.28125"/><stop stop-opacity="1" stop-color="rgb(89.575195%, 26.272583%, 61.734009%)" offset="0.285156"/><stop stop-opacity="1" stop-color="rgb(89.497375%, 26.391602%, 61.935425%)" offset="0.289063"/><stop stop-opacity="1" stop-color="rgb(89.419556%, 26.509094%, 62.135315%)" offset="0.292969"/><stop stop-opacity="1" stop-color="rgb(89.341736%, 26.628113%, 62.336731%)" offset="0.296875"/><stop stop-opacity="1" stop-color="rgb(89.26239%, 26.745605%, 62.538147%)" offset="0.300781"/><stop stop-opacity="1" stop-color="rgb(89.18457%, 26.864624%, 62.739563%)" offset="0.304688"/><stop stop-opacity="1" stop-color="rgb(89.105225%, 26.982117%, 62.940979%)" offset="0.308594"/><stop stop-opacity="1" stop-color="rgb(89.027405%, 27.101135%, 63.142395%)" offset="0.3125"/><stop stop-opacity="1" stop-color="rgb(88.949585%, 27.218628%, 63.342285%)" offset="0.316406"/><stop stop-opacity="1" stop-color="rgb(88.871765%, 27.337646%, 63.543701%)" offset="0.320313"/><stop stop-opacity="1" stop-color="rgb(88.792419%, 27.455139%, 63.745117%)" offset="0.324219"/><stop stop-opacity="1" stop-color="rgb(88.7146%, 27.574158%, 63.946533%)" offset="0.328125"/><stop stop-opacity="1" stop-color="rgb(88.635254%, 27.69165%, 64.147949%)" offset="0.332031"/><stop stop-opacity="1" stop-color="rgb(88.557434%, 27.810669%, 64.349365%)" offset="0.335938"/><stop stop-opacity="1" stop-color="rgb(88.479614%, 27.928162%, 64.549255%)" offset="0.339844"/><stop stop-opacity="1" stop-color="rgb(88.401794%, 28.04718%, 64.750671%)" offset="0.34375"/><stop stop-opacity="1" stop-color="rgb(88.322449%, 28.164673%, 64.952087%)" offset="0.347656"/><stop stop-opacity="1" stop-color="rgb(88.244629%, 28.283691%, 65.153503%)" offset="0.351563"/><stop stop-opacity="1" stop-color="rgb(88.165283%, 28.401184%, 65.354919%)" offset="0.355469"/><stop stop-opacity="1" stop-color="rgb(88.087463%, 28.520203%, 65.556335%)" offset="0.359375"/><stop stop-opacity="1" stop-color="rgb(88.009644%, 28.637695%, 65.756226%)" offset="0.363281"/><stop stop-opacity="1" stop-color="rgb(87.931824%, 28.756714%, 65.957642%)" offset="0.367188"/><stop stop-opacity="1" stop-color="rgb(87.852478%, 28.874207%, 66.159058%)" offset="0.371094"/><stop stop-opacity="1" stop-color="rgb(87.774658%, 28.993225%, 66.360474%)" offset="0.375"/><stop stop-opacity="1" stop-color="rgb(87.695312%, 29.110718%, 66.56189%)" offset="0.378906"/><stop stop-opacity="1" stop-color="rgb(87.617493%, 29.229736%, 66.763306%)" offset="0.382812"/><stop stop-opacity="1" stop-color="rgb(87.539673%, 29.347229%, 66.963196%)" offset="0.386719"/><stop stop-opacity="1" stop-color="rgb(87.461853%, 29.466248%, 67.164612%)" offset="0.390625"/><stop stop-opacity="1" stop-color="rgb(87.382507%, 29.58374%, 67.366028%)" offset="0.394531"/><stop stop-opacity="1" stop-color="rgb(87.304688%, 29.701233%, 67.567444%)" offset="0.398437"/><stop stop-opacity="1" stop-color="rgb(87.225342%, 29.818726%, 67.76886%)" offset="0.402344"/><stop stop-opacity="1" stop-color="rgb(87.147522%, 29.937744%, 67.970276%)" offset="0.40625"/><stop stop-opacity="1" stop-color="rgb(87.069702%, 30.055237%, 68.170166%)" offset="0.410156"/><stop stop-opacity="1" stop-color="rgb(86.991882%, 30.174255%, 68.371582%)" offset="0.414062"/><stop stop-opacity="1" stop-color="rgb(86.912537%, 30.291748%, 68.572998%)" offset="0.417969"/><stop stop-opacity="1" stop-color="rgb(86.834717%, 30.410767%, 68.774414%)" offset="0.421875"/><stop stop-opacity="1" stop-color="rgb(86.755371%, 30.528259%, 68.97583%)" offset="0.425781"/><stop stop-opacity="1" stop-color="rgb(86.677551%, 30.647278%, 69.177246%)" offset="0.429688"/><stop stop-opacity="1" stop-color="rgb(86.599731%, 30.764771%, 69.378662%)" offset="0.433594"/><stop stop-opacity="1" stop-color="rgb(86.521912%, 30.883789%, 69.580078%)" offset="0.4375"/><stop stop-opacity="1" stop-color="rgb(86.442566%, 31.001282%, 69.779968%)" offset="0.441406"/><stop stop-opacity="1" stop-color="rgb(86.364746%, 31.1203%, 69.981384%)" offset="0.445312"/><stop stop-opacity="1" stop-color="rgb(86.2854%, 31.237793%, 70.1828%)" offset="0.449219"/><stop stop-opacity="1" stop-color="rgb(86.207581%, 31.356812%, 70.384216%)" offset="0.453125"/><stop stop-opacity="1" stop-color="rgb(86.129761%, 31.474304%, 70.585632%)" offset="0.457031"/><stop stop-opacity="1" stop-color="rgb(86.051941%, 31.593323%, 70.787048%)" offset="0.460938"/><stop stop-opacity="1" stop-color="rgb(85.972595%, 31.710815%, 70.986938%)" offset="0.464844"/><stop stop-opacity="1" stop-color="rgb(85.894775%, 31.829834%, 71.188354%)" offset="0.46875"/><stop stop-opacity="1" stop-color="rgb(85.81543%, 31.947327%, 71.389771%)" offset="0.472656"/><stop stop-opacity="1" stop-color="rgb(85.73761%, 32.066345%, 71.591187%)" offset="0.476563"/><stop stop-opacity="1" stop-color="rgb(85.65979%, 32.183838%, 71.792603%)" offset="0.480469"/><stop stop-opacity="1" stop-color="rgb(85.58197%, 32.302856%, 71.994019%)" offset="0.484375"/><stop stop-opacity="1" stop-color="rgb(85.502625%, 32.420349%, 72.193909%)" offset="0.488281"/><stop stop-opacity="1" stop-color="rgb(85.424805%, 32.539368%, 72.395325%)" offset="0.492188"/><stop stop-opacity="1" stop-color="rgb(85.345459%, 32.65686%, 72.596741%)" offset="0.496094"/><stop stop-opacity="1" stop-color="rgb(85.267639%, 32.775879%, 72.798157%)" offset="0.5"/><stop stop-opacity="1" stop-color="rgb(85.189819%, 32.893372%, 72.999573%)" offset="0.503906"/><stop stop-opacity="1" stop-color="rgb(85.112%, 33.01239%, 73.200989%)" offset="0.507813"/><stop stop-opacity="1" stop-color="rgb(85.032654%, 33.129883%, 73.400879%)" offset="0.511719"/><stop stop-opacity="1" stop-color="rgb(84.954834%, 33.248901%, 73.602295%)" offset="0.515625"/><stop stop-opacity="1" stop-color="rgb(84.875488%, 33.366394%, 73.803711%)" offset="0.519531"/><stop stop-opacity="1" stop-color="rgb(84.797668%, 33.485413%, 74.005127%)" offset="0.523438"/><stop stop-opacity="1" stop-color="rgb(84.719849%, 33.602905%, 74.206543%)" offset="0.527344"/><stop stop-opacity="1" stop-color="rgb(84.642029%, 33.721924%, 74.407959%)" offset="0.53125"/><stop stop-opacity="1" stop-color="rgb(84.562683%, 33.839417%, 74.607849%)" offset="0.535156"/><stop stop-opacity="1" stop-color="rgb(84.484863%, 33.958435%, 74.809265%)" offset="0.539063"/><stop stop-opacity="1" stop-color="rgb(84.405518%, 34.075928%, 75.010681%)" offset="0.542969"/><stop stop-opacity="1" stop-color="rgb(84.327698%, 34.194946%, 75.212097%)" offset="0.546875"/><stop stop-opacity="1" stop-color="rgb(84.249878%, 34.312439%, 75.413513%)" offset="0.550781"/><stop stop-opacity="1" stop-color="rgb(84.172058%, 34.431458%, 75.614929%)" offset="0.554688"/><stop stop-opacity="1" stop-color="rgb(84.092712%, 34.54895%, 75.814819%)" offset="0.558594"/><stop stop-opacity="1" stop-color="rgb(84.014893%, 34.667969%, 76.016235%)" offset="0.5625"/><stop stop-opacity="1" stop-color="rgb(83.935547%, 34.785461%, 76.217651%)" offset="0.566406"/><stop stop-opacity="1" stop-color="rgb(83.857727%, 34.90448%, 76.419067%)" offset="0.570313"/><stop stop-opacity="1" stop-color="rgb(83.779907%, 35.021973%, 76.620483%)" offset="0.574219"/><stop stop-opacity="1" stop-color="rgb(83.702087%, 35.140991%, 76.821899%)" offset="0.578125"/><stop stop-opacity="1" stop-color="rgb(83.622742%, 35.258484%, 77.02179%)" offset="0.582031"/><stop stop-opacity="1" stop-color="rgb(83.544922%, 35.377502%, 77.223206%)" offset="0.585938"/><stop stop-opacity="1" stop-color="rgb(83.465576%, 35.494995%, 77.424622%)" offset="0.589844"/><stop stop-opacity="1" stop-color="rgb(83.387756%, 35.614014%, 77.626038%)" offset="0.59375"/><stop stop-opacity="1" stop-color="rgb(83.309937%, 35.731506%, 77.827454%)" offset="0.597656"/><stop stop-opacity="1" stop-color="rgb(83.232117%, 35.850525%, 78.02887%)" offset="0.601563"/><stop stop-opacity="1" stop-color="rgb(83.152771%, 35.968018%, 78.230286%)" offset="0.605469"/><stop stop-opacity="1" stop-color="rgb(83.074951%, 36.087036%, 78.431702%)" offset="0.609375"/><stop stop-opacity="1" stop-color="rgb(82.997131%, 36.204529%, 78.631592%)" offset="0.613281"/><stop stop-opacity="1" stop-color="rgb(82.919312%, 36.323547%, 78.833008%)" offset="0.617188"/><stop stop-opacity="1" stop-color="rgb(82.839966%, 36.44104%, 79.034424%)" offset="0.621094"/><stop stop-opacity="1" stop-color="rgb(82.762146%, 36.558533%, 79.23584%)" offset="0.625"/><stop stop-opacity="1" stop-color="rgb(82.6828%, 36.676025%, 79.437256%)" offset="0.628906"/><stop stop-opacity="1" stop-color="rgb(82.60498%, 36.795044%, 79.638672%)" offset="0.632813"/><stop stop-opacity="1" stop-color="rgb(82.527161%, 36.912537%, 79.838562%)" offset="0.636719"/><stop stop-opacity="1" stop-color="rgb(82.449341%, 37.031555%, 80.039978%)" offset="0.640625"/><stop stop-opacity="1" stop-color="rgb(82.369995%, 37.149048%, 80.241394%)" offset="0.644531"/><stop stop-opacity="1" stop-color="rgb(82.292175%, 37.268066%, 80.44281%)" offset="0.648438"/><stop stop-opacity="1" stop-color="rgb(82.21283%, 37.385559%, 80.644226%)" offset="0.652344"/><stop stop-opacity="1" stop-color="rgb(82.13501%, 37.504578%, 80.845642%)" offset="0.65625"/><stop stop-opacity="1" stop-color="rgb(82.05719%, 37.62207%, 81.045532%)" offset="0.660156"/><stop stop-opacity="1" stop-color="rgb(81.97937%, 37.741089%, 81.246948%)" offset="0.664063"/><stop stop-opacity="1" stop-color="rgb(81.900024%, 37.858582%, 81.448364%)" offset="0.667969"/><stop stop-opacity="1" stop-color="rgb(81.822205%, 37.9776%, 81.64978%)" offset="0.671875"/><stop stop-opacity="1" stop-color="rgb(81.742859%, 38.095093%, 81.851196%)" offset="0.675781"/><stop stop-opacity="1" stop-color="rgb(81.665039%, 38.214111%, 82.052612%)" offset="0.679688"/><stop stop-opacity="1" stop-color="rgb(81.587219%, 38.331604%, 82.252502%)" offset="0.683594"/><stop stop-opacity="1" stop-color="rgb(81.509399%, 38.450623%, 82.453918%)" offset="0.6875"/><stop stop-opacity="1" stop-color="rgb(81.430054%, 38.568115%, 82.655334%)" offset="0.691406"/><stop stop-opacity="1" stop-color="rgb(81.352234%, 38.687134%, 82.85675%)" offset="0.695312"/><stop stop-opacity="1" stop-color="rgb(81.272888%, 38.804626%, 83.058167%)" offset="0.699219"/><stop stop-opacity="1" stop-color="rgb(81.195068%, 38.923645%, 83.259583%)" offset="0.703125"/><stop stop-opacity="1" stop-color="rgb(81.117249%, 39.041138%, 83.459473%)" offset="0.707031"/><stop stop-opacity="1" stop-color="rgb(81.039429%, 39.160156%, 83.660889%)" offset="0.710938"/><stop stop-opacity="1" stop-color="rgb(80.960083%, 39.277649%, 83.862305%)" offset="0.714844"/><stop stop-opacity="1" stop-color="rgb(80.882263%, 39.396667%, 84.063721%)" offset="0.71875"/><stop stop-opacity="1" stop-color="rgb(80.802917%, 39.51416%, 84.265137%)" offset="0.722656"/><stop stop-opacity="1" stop-color="rgb(80.725098%, 39.633179%, 84.466553%)" offset="0.726563"/><stop stop-opacity="1" stop-color="rgb(80.647278%, 39.750671%, 84.666443%)" offset="0.730469"/><stop stop-opacity="1" stop-color="rgb(80.569458%, 39.86969%, 84.867859%)" offset="0.734375"/><stop stop-opacity="1" stop-color="rgb(80.490112%, 39.987183%, 85.069275%)" offset="0.738281"/><stop stop-opacity="1" stop-color="rgb(80.412292%, 40.106201%, 85.270691%)" offset="0.742188"/><stop stop-opacity="1" stop-color="rgb(80.332947%, 40.223694%, 85.472107%)" offset="0.746094"/><stop stop-opacity="1" stop-color="rgb(80.255127%, 40.342712%, 85.673523%)" offset="0.75"/><stop stop-opacity="1" stop-color="rgb(80.177307%, 40.460205%, 85.874939%)" offset="0.753906"/><stop stop-opacity="1" stop-color="rgb(80.099487%, 40.579224%, 86.076355%)" offset="0.757813"/><stop stop-opacity="1" stop-color="rgb(80.020142%, 40.696716%, 86.276245%)" offset="0.761719"/><stop stop-opacity="1" stop-color="rgb(79.942322%, 40.815735%, 86.477661%)" offset="0.765625"/><stop stop-opacity="1" stop-color="rgb(79.862976%, 40.933228%, 86.679077%)" offset="0.769531"/><stop stop-opacity="1" stop-color="rgb(79.785156%, 41.052246%, 86.880493%)" offset="0.773438"/><stop stop-opacity="1" stop-color="rgb(79.707336%, 41.169739%, 87.081909%)" offset="0.777344"/><stop stop-opacity="1" stop-color="rgb(79.629517%, 41.288757%, 87.283325%)" offset="0.78125"/><stop stop-opacity="1" stop-color="rgb(79.550171%, 41.40625%, 87.483215%)" offset="0.785156"/><stop stop-opacity="1" stop-color="rgb(79.472351%, 41.525269%, 87.684631%)" offset="0.789063"/><stop stop-opacity="1" stop-color="rgb(79.393005%, 41.642761%, 87.886047%)" offset="0.792969"/><stop stop-opacity="1" stop-color="rgb(79.315186%, 41.76178%, 88.087463%)" offset="0.796875"/><stop stop-opacity="1" stop-color="rgb(79.237366%, 41.879272%, 88.288879%)" offset="0.800781"/><stop stop-opacity="1" stop-color="rgb(79.159546%, 41.998291%, 88.490295%)" offset="0.804688"/><stop stop-opacity="1" stop-color="rgb(79.0802%, 42.115784%, 88.690186%)" offset="0.808594"/><stop stop-opacity="1" stop-color="rgb(79.00238%, 42.234802%, 88.891602%)" offset="0.8125"/><stop stop-opacity="1" stop-color="rgb(78.923035%, 42.352295%, 89.093018%)" offset="0.816406"/><stop stop-opacity="1" stop-color="rgb(78.845215%, 42.471313%, 89.294434%)" offset="0.820313"/><stop stop-opacity="1" stop-color="rgb(78.767395%, 42.588806%, 89.49585%)" offset="0.824219"/><stop stop-opacity="1" stop-color="rgb(78.689575%, 42.707825%, 89.697266%)" offset="0.828125"/><stop stop-opacity="1" stop-color="rgb(78.610229%, 42.825317%, 89.897156%)" offset="0.832031"/><stop stop-opacity="1" stop-color="rgb(78.53241%, 42.944336%, 90.098572%)" offset="0.835938"/><stop stop-opacity="1" stop-color="rgb(78.453064%, 43.061829%, 90.299988%)" offset="0.839844"/><stop stop-opacity="1" stop-color="rgb(78.375244%, 43.180847%, 90.501404%)" offset="0.84375"/><stop stop-opacity="1" stop-color="rgb(78.297424%, 43.29834%, 90.70282%)" offset="0.847656"/><stop stop-opacity="1" stop-color="rgb(78.219604%, 43.415833%, 90.904236%)" offset="0.851563"/><stop stop-opacity="1" stop-color="rgb(78.140259%, 43.533325%, 91.104126%)" offset="0.855469"/><stop stop-opacity="1" stop-color="rgb(78.062439%, 43.652344%, 91.305542%)" offset="0.859375"/><stop stop-opacity="1" stop-color="rgb(77.983093%, 43.769836%, 91.506958%)" offset="0.863281"/><stop stop-opacity="1" stop-color="rgb(77.905273%, 43.888855%, 91.708374%)" offset="0.867188"/><stop stop-opacity="1" stop-color="rgb(77.827454%, 44.006348%, 91.90979%)" offset="0.871094"/><stop stop-opacity="1" stop-color="rgb(77.749634%, 44.125366%, 92.111206%)" offset="0.875"/><stop stop-opacity="1" stop-color="rgb(77.670288%, 44.242859%, 92.311096%)" offset="0.878906"/><stop stop-opacity="1" stop-color="rgb(77.592468%, 44.361877%, 92.512512%)" offset="0.882813"/><stop stop-opacity="1" stop-color="rgb(77.513123%, 44.47937%, 92.713928%)" offset="0.886719"/><stop stop-opacity="1" stop-color="rgb(77.435303%, 44.598389%, 92.915344%)" offset="0.890625"/><stop stop-opacity="1" stop-color="rgb(77.357483%, 44.715881%, 93.11676%)" offset="0.894531"/><stop stop-opacity="1" stop-color="rgb(77.279663%, 44.8349%, 93.318176%)" offset="0.898438"/><stop stop-opacity="1" stop-color="rgb(77.200317%, 44.952393%, 93.518066%)" offset="0.902344"/><stop stop-opacity="1" stop-color="rgb(77.122498%, 45.071411%, 93.719482%)" offset="0.90625"/><stop stop-opacity="1" stop-color="rgb(77.043152%, 45.188904%, 93.920898%)" offset="0.910156"/><stop stop-opacity="1" stop-color="rgb(76.965332%, 45.307922%, 94.122314%)" offset="0.914063"/><stop stop-opacity="1" stop-color="rgb(76.887512%, 45.425415%, 94.32373%)" offset="0.917969"/><stop stop-opacity="1" stop-color="rgb(76.809692%, 45.544434%, 94.525146%)" offset="0.921875"/><stop stop-opacity="1" stop-color="rgb(76.730347%, 45.661926%, 94.726562%)" offset="0.925781"/><stop stop-opacity="1" stop-color="rgb(76.652527%, 45.780945%, 94.927979%)" offset="0.929688"/><stop stop-opacity="1" stop-color="rgb(76.573181%, 45.898438%, 95.127869%)" offset="0.933594"/><stop stop-opacity="1" stop-color="rgb(76.495361%, 46.017456%, 95.329285%)" offset="0.9375"/><stop stop-opacity="1" stop-color="rgb(76.417542%, 46.134949%, 95.530701%)" offset="0.941406"/><stop stop-opacity="1" stop-color="rgb(76.339722%, 46.253967%, 95.732117%)" offset="0.945313"/><stop stop-opacity="1" stop-color="rgb(76.260376%, 46.37146%, 95.933533%)" offset="0.949219"/><stop stop-opacity="1" stop-color="rgb(76.182556%, 46.490479%, 96.134949%)" offset="0.953125"/><stop stop-opacity="1" stop-color="rgb(76.10321%, 46.607971%, 96.334839%)" offset="0.957031"/><stop stop-opacity="1" stop-color="rgb(76.025391%, 46.72699%, 96.536255%)" offset="0.960938"/><stop stop-opacity="1" stop-color="rgb(75.947571%, 46.844482%, 96.737671%)" offset="0.964844"/><stop stop-opacity="1" stop-color="rgb(75.869751%, 46.963501%, 96.939087%)" offset="0.96875"/><stop stop-opacity="1" stop-color="rgb(75.790405%, 47.080994%, 97.140503%)" offset="0.972656"/><stop stop-opacity="1" stop-color="rgb(75.712585%, 47.200012%, 97.341919%)" offset="0.976563"/><stop stop-opacity="1" stop-color="rgb(75.63324%, 47.317505%, 97.541809%)" offset="0.980469"/><stop stop-opacity="1" stop-color="rgb(75.55542%, 47.436523%, 97.743225%)" offset="0.984375"/><stop stop-opacity="1" stop-color="rgb(75.4776%, 47.554016%, 97.944641%)" offset="0.988281"/><stop stop-opacity="1" stop-color="rgb(75.39978%, 47.673035%, 98.146057%)" offset="0.992188"/><stop stop-opacity="1" stop-color="rgb(75.344849%, 47.755432%, 98.287964%)" offset="1"/></linearGradient></defs><rect x="-37.5" width="450" fill="#ffffff" y="-37.499999" height="449.999989" fill-opacity="1"/><rect x="-37.5" width="450" fill="#ffffff" y="-37.499999" height="449.999989" fill-opacity="1"/><g clip-path="url(#d308483e33)"><path fill="#0cc0df" d="M 124.5625 96.933594 C 123.855469 96.933594 123.28125 96.359375 123.28125 95.652344 C 123.28125 94.949219 123.855469 94.371094 124.5625 94.371094 C 125.265625 94.371094 125.839844 94.949219 125.839844 95.652344 C 125.839844 96.359375 125.265625 96.933594 124.5625 96.933594 Z M 126.1875 96.046875 L 157.011719 96.046875 L 164.242188 103.273438 L 173.367188 103.273438 L 182.792969 93.847656 L 210.925781 93.847656 L 224.925781 79.847656 C 225.488281 80.167969 226.214844 80.089844 226.695312 79.609375 C 227.273438 79.035156 227.273438 78.097656 226.695312 77.523438 C 226.121094 76.945312 225.183594 76.945312 224.609375 77.523438 C 224.128906 78 224.046875 78.730469 224.367188 79.292969 L 210.601562 93.058594 L 182.46875 93.058594 L 173.039062 102.488281 L 164.566406 102.488281 L 157.339844 95.261719 L 126.1875 95.261719 C 126.007812 94.527344 125.347656 93.980469 124.5625 93.980469 C 123.636719 93.980469 122.886719 94.730469 122.886719 95.652344 C 122.886719 96.574219 123.636719 97.328125 124.5625 97.328125 C 125.347656 97.328125 126.007812 96.78125 126.1875 96.046875 " fill-opacity="1" fill-rule="nonzero"/></g><g clip-path="url(#1e945418ea)"><path fill="#0cc0df" d="M 233.1875 141.183594 L 233.183594 141.179688 L 233.1875 141.183594 " fill-opacity="1" fill-rule="nonzero"/></g><g clip-path="url(#04d7806fc0)"><path fill="#0cc0df" d="M 233.011719 141.003906 L 232.980469 140.976562 L 233.011719 141.003906 " fill-opacity="1" fill-rule="nonzero"/></g><g clip-path="url(#f42c7bb787)"><path fill="#0cc0df" d="M 233.289062 140.726562 C 232.789062 140.230469 232.789062 139.417969 233.289062 138.917969 C 233.789062 138.417969 234.601562 138.417969 235.097656 138.917969 C 235.597656 139.417969 235.597656 140.230469 235.097656 140.726562 C 234.601562 141.226562 233.789062 141.226562 233.289062 140.726562 Z M 233.324219 138.394531 L 221.703125 126.773438 L 194.648438 126.773438 L 179.652344 111.777344 L 159.085938 111.777344 L 152.308594 105.003906 L 133.800781 105.003906 C 133.628906 104.378906 133.058594 103.917969 132.378906 103.917969 C 131.5625 103.917969 130.902344 104.578125 130.902344 105.394531 C 130.902344 106.210938 131.5625 106.871094 132.378906 106.871094 C 133.058594 106.871094 133.628906 106.414062 133.800781 105.789062 L 151.984375 105.789062 L 158.761719 112.5625 L 179.324219 112.5625 L 194.324219 127.558594 L 221.375 127.558594 L 232.765625 138.953125 C 232.375 139.59375 232.453125 140.449219 233.011719 141.003906 C 233.664062 141.65625 234.722656 141.65625 235.378906 141.003906 C 236.03125 140.351562 236.03125 139.292969 235.378906 138.640625 C 234.820312 138.082031 233.964844 138.003906 233.324219 138.394531 " fill-opacity="1" fill-rule="nonzero"/></g><path fill="#0cc0df" d="M 232.980469 140.976562 C 232.953125 140.949219 232.929688 140.925781 232.910156 140.90625 C 232.929688 140.925781 232.957031 140.949219 232.980469 140.976562 " fill-opacity="1" fill-rule="nonzero"/><g clip-path="url(#4f66109df6)"><path fill="#0cc0df" d="M 233.183594 141.179688 C 233.160156 141.15625 233.105469 141.101562 233.011719 141.003906 C 233.082031 141.078125 233.152344 141.148438 233.183594 141.179688 " fill-opacity="1" fill-rule="nonzero"/><path fill="#0cc0df" d="M 233.1875 141.183594 C 233.203125 141.199219 233.199219 141.195312 233.1875 141.183594 " fill-opacity="1" fill-rule="nonzero"/></g><path fill="#0cc0df" d="M 232.832031 140.824219 C 232.84375 140.839844 232.875 140.867188 232.910156 140.90625 C 232.867188 140.863281 232.84375 140.835938 232.832031 140.824219 " fill-opacity="1" fill-rule="nonzero"/><g clip-path="url(#2b4d2d37a7)"><path fill="#0cc0df" d="M 139.277344 111.246094 C 139.277344 111.953125 138.703125 112.527344 137.996094 112.527344 C 137.289062 112.527344 136.714844 111.953125 136.714844 111.246094 C 136.714844 110.539062 137.289062 109.964844 137.996094 109.964844 C 138.703125 109.964844 139.277344 110.539062 139.277344 111.246094 Z M 175.496094 119.15625 C 174.816406 119.15625 174.246094 119.613281 174.074219 120.238281 L 155.808594 120.238281 L 146.421875 110.851562 L 139.621094 110.851562 C 139.441406 110.121094 138.78125 109.570312 137.996094 109.570312 C 137.074219 109.570312 136.320312 110.324219 136.320312 111.246094 C 136.320312 112.167969 137.074219 112.917969 137.996094 112.917969 C 138.78125 112.917969 139.441406 112.371094 139.621094 111.636719 L 146.097656 111.636719 L 155.484375 121.023438 L 174.074219 121.023438 C 174.246094 121.648438 174.816406 122.109375 175.496094 122.109375 C 176.3125 122.109375 176.972656 121.445312 176.972656 120.632812 C 176.972656 119.816406 176.3125 119.15625 175.496094 119.15625 " fill-opacity="1" fill-rule="nonzero"/></g><path fill="#0cc0df" d="M 246.324219 112.527344 C 245.617188 112.527344 245.046875 111.953125 245.046875 111.246094 C 245.046875 110.539062 245.617188 109.964844 246.324219 109.964844 C 247.03125 109.964844 247.605469 110.539062 247.605469 111.246094 C 247.605469 111.953125 247.03125 112.527344 246.324219 112.527344 Z M 248 111.246094 C 248 110.324219 247.246094 109.570312 246.324219 109.570312 C 245.539062 109.570312 244.878906 110.121094 244.699219 110.851562 L 230.480469 110.851562 L 219.917969 100.289062 L 187.234375 100.289062 C 187.0625 99.664062 186.492188 99.203125 185.8125 99.203125 C 184.996094 99.203125 184.335938 99.867188 184.335938 100.679688 C 184.335938 101.496094 184.996094 102.160156 185.8125 102.160156 C 186.492188 102.160156 187.0625 101.699219 187.234375 101.074219 L 219.589844 101.074219 L 230.15625 111.636719 L 244.699219 111.636719 C 244.878906 112.371094 245.539062 112.917969 246.324219 112.917969 C 247.246094 112.917969 248 112.167969 248 111.246094 " fill-opacity="1" fill-rule="nonzero"/><path fill="#0cc0df" d="M 192.5 107.753906 C 192.5 108.457031 191.925781 109.03125 191.21875 109.03125 C 190.511719 109.03125 189.9375 108.457031 189.9375 107.753906 C 189.9375 107.046875 190.511719 106.472656 191.21875 106.472656 C 191.925781 106.472656 192.5 107.046875 192.5 107.753906 Z M 219.378906 115.8125 L 210.925781 107.359375 L 192.84375 107.359375 C 192.664062 106.625 192.003906 106.078125 191.21875 106.078125 C 190.296875 106.078125 189.546875 106.828125 189.546875 107.753906 C 189.546875 108.675781 190.296875 109.425781 191.21875 109.425781 C 192.003906 109.425781 192.664062 108.878906 192.84375 108.144531 L 210.601562 108.144531 L 217.480469 115.023438 L 203.632812 115.023438 L 199.859375 118.796875 C 199.296875 118.476562 198.570312 118.554688 198.089844 119.035156 C 197.511719 119.613281 197.511719 120.550781 198.089844 121.125 C 198.664062 121.703125 199.601562 121.703125 200.175781 121.125 C 200.65625 120.644531 200.738281 119.917969 200.417969 119.351562 L 203.960938 115.8125 L 219.378906 115.8125 " fill-opacity="1" fill-rule="nonzero"/><path fill="#0cc0df" d="M 223.652344 93.542969 C 223.652344 94.25 223.078125 94.824219 222.371094 94.824219 C 221.664062 94.824219 221.089844 94.25 221.089844 93.542969 C 221.089844 92.835938 221.664062 92.261719 222.371094 92.261719 C 223.078125 92.261719 223.652344 92.835938 223.652344 93.542969 Z M 223.996094 93.152344 C 223.820312 92.417969 223.160156 91.871094 222.371094 91.871094 C 221.449219 91.871094 220.699219 92.621094 220.699219 93.542969 C 220.699219 94.464844 221.449219 95.214844 222.371094 95.214844 C 223.160156 95.214844 223.820312 94.667969 223.996094 93.9375 L 229.582031 93.9375 L 235.777344 87.742188 C 236.339844 88.058594 237.070312 87.980469 237.550781 87.5 C 238.125 86.925781 238.125 85.988281 237.550781 85.414062 C 236.972656 84.835938 236.039062 84.835938 235.460938 85.414062 C 234.980469 85.894531 234.902344 86.621094 235.222656 87.183594 L 229.253906 93.152344 L 223.996094 93.152344 " fill-opacity="1" fill-rule="nonzero"/><path fill="#0cc0df" d="M 214.695312 121.125 C 214.695312 121.832031 214.121094 122.40625 213.414062 122.40625 C 212.707031 122.40625 212.136719 121.832031 212.136719 121.125 C 212.136719 120.417969 212.707031 119.84375 213.414062 119.84375 C 214.121094 119.84375 214.695312 120.417969 214.695312 121.125 Z M 240.667969 125.183594 C 239.988281 125.183594 239.417969 125.644531 239.246094 126.269531 L 231.109375 126.269531 L 225.574219 120.734375 L 215.039062 120.734375 C 214.863281 120 214.203125 119.453125 213.414062 119.453125 C 212.492188 119.453125 211.742188 120.203125 211.742188 121.125 C 211.742188 122.046875 212.492188 122.800781 213.414062 122.800781 C 214.203125 122.800781 214.863281 122.25 215.039062 121.519531 L 225.25 121.519531 L 230.785156 127.054688 L 239.246094 127.054688 C 239.417969 127.679688 239.988281 128.136719 240.667969 128.136719 C 241.484375 128.136719 242.144531 127.476562 242.144531 126.660156 C 242.144531 125.84375 241.484375 125.183594 240.667969 125.183594 " fill-opacity="1" fill-rule="nonzero"/><g clip-path="url(#1f4ac7d3b3)"><g clip-path="url(#c7d0e73b61)"><path fill="url(#cbc009c284)" d="M 116.304688 62.507812 L 116.304688 156.222656 L 161.839844 156.222656 L 161.839844 62.507812 Z M 116.304688 62.507812 " fill-rule="nonzero"/></g></g><g clip-path="url(#fee4832257)"><g clip-path="url(#e06e030fcd)"><path fill="url(#1d2f2e96a9)" d="M 166.753906 62.507812 L 166.753906 156.222656 L 212.296875 156.222656 L 212.296875 62.507812 Z M 166.753906 62.507812 " fill-rule="nonzero"/></g></g></svg>