<svg xmlns="http://www.w3.org/2000/svg" xmlns:xlink="http://www.w3.org/1999/xlink" width="500" zoomAndPan="magnify" viewBox="0 0 375 374.999991" height="500" preserveAspectRatio="xMidYMid meet" version="1.0"><defs><clipPath id="bd1913bb14"><path d="M 4.824219 97.339844 L 226.074219 97.339844 L 226.074219 275 L 4.824219 275 Z M 4.824219 97.339844 " clip-rule="nonzero"/></clipPath><clipPath id="528061108f"><path d="M 58 0.679688 L 222.074219 0.679688 L 222.074219 73 L 58 73 Z M 58 0.679688 " clip-rule="nonzero"/></clipPath><clipPath id="4d76401464"><path d="M 34 74 L 222.074219 74 L 222.074219 177.558594 L 34 177.558594 Z M 34 74 " clip-rule="nonzero"/></clipPath><clipPath id="ce00b9ef36"><path d="M 195 89 L 222.074219 89 L 222.074219 125 L 195 125 Z M 195 89 " clip-rule="nonzero"/></clipPath><clipPath id="b83c7323e3"><path d="M 0.964844 61 L 176 61 L 176 100 L 0.964844 100 Z M 0.964844 61 " clip-rule="nonzero"/></clipPath><clipPath id="79fd503fac"><rect x="0" width="223" y="0" height="178"/></clipPath><clipPath id="4f5d02e52d"><path d="M 103.828125 57.773438 L 229 57.773438 L 229 314.273438 L 103.828125 314.273438 Z M 103.828125 57.773438 " clip-rule="nonzero"/></clipPath><clipPath id="6eac756974"><path d="M 228.324219 99.097656 L 228.324219 273.632812 C 228.324219 279.140625 226.957031 284.28125 225.226562 289.109375 C 223.175781 293.933594 220.078125 298.394531 216.246094 302.171875 C 212.46875 305.949219 208.003906 309.042969 203.175781 311.140625 C 198.34375 313.1875 192.832031 314.238281 187.320312 314.238281 C 176.296875 314.238281 165.953125 309.777344 158.917969 302.171875 C 156.1875 299.441406 153.40625 295.980469 151.671875 292.519531 C 149.941406 289.421875 148.574219 285.644531 147.890625 282.183594 C 141.699219 279.457031 135.816406 275.992188 130.671875 271.847656 C 125.160156 267.703125 120.328125 262.5625 116.550781 256.6875 C 112.402344 250.8125 108.988281 244.308594 106.890625 237.066406 C 104.84375 230.617188 103.792969 223.375 103.792969 215.820312 C 103.792969 213.09375 103.792969 210.3125 104.160156 207.21875 C 104.527344 204.492188 104.84375 201.710938 105.523438 198.980469 C 106.207031 196.570312 106.890625 194.15625 107.941406 191.742188 C 108.621094 189.328125 109.671875 187.285156 110.671875 185.183594 C 108.621094 180.726562 107.203125 176.214844 106.207031 171.753906 C 105.15625 166.929688 104.84375 162.101562 104.84375 156.960938 C 104.84375 149.722656 105.890625 142.484375 107.941406 135.976562 C 109.988281 129.105469 113.085938 122.546875 117.234375 116.726562 C 121.011719 111.214844 125.84375 106.074219 130.988281 101.5625 C 135.816406 97.417969 141.328125 94.011719 147.523438 91.230469 C 148.207031 87.453125 149.574219 83.675781 151.304688 80.214844 C 153.351562 76.070312 155.765625 72.660156 158.863281 69.5625 C 162.644531 66.101562 167.109375 63.007812 171.9375 60.960938 C 176.765625 58.914062 182.015625 57.8125 187.476562 57.8125 C 192.988281 57.8125 198.503906 58.863281 203.332031 60.90625 C 208.164062 62.953125 212.625 66.050781 216.40625 69.511719 C 220.183594 73.289062 223.28125 77.746094 225.382812 82.941406 C 226.957031 88.449219 228.324219 93.589844 228.324219 99.097656 Z M 218.664062 273.632812 L 218.664062 99.097656 C 218.664062 94.953125 217.613281 90.863281 216.246094 87.03125 C 214.515625 83.253906 212.46875 79.792969 209.371094 77.066406 C 206.640625 74.335938 203.175781 71.925781 199.394531 70.191406 C 195.613281 68.828125 191.835938 68.148438 187.320312 68.148438 C 183.171875 68.148438 179.078125 68.828125 175.613281 70.191406 C 171.832031 71.925781 168.367188 74.335938 165.269531 77.066406 C 162.539062 79.792969 160.125 83.253906 158.707031 87.03125 C 156.976562 90.808594 156.292969 94.953125 156.292969 99.097656 C 156.292969 101.828125 156.660156 104.605469 157.34375 107.019531 C 158.023438 109.746094 159.074219 112.160156 160.441406 114.574219 C 161.804688 116.988281 163.171875 119.035156 165.269531 120.765625 C 167.003906 122.496094 168.734375 124.226562 171.148438 125.589844 C 175.980469 125.957031 180.808594 126.953125 184.90625 129.054688 C 189.734375 131.097656 193.882812 133.878906 197.296875 137.289062 C 201.074219 141.066406 204.171875 145.527344 206.273438 150.71875 C 208.320312 155.179688 209.371094 160.6875 209.371094 166.195312 C 209.371094 168.921875 209.003906 172.070312 208.320312 174.796875 C 207.636719 177.894531 206.585938 180.671875 205.589844 183.402344 C 204.226562 186.128906 202.492188 188.542969 200.761719 190.957031 C 199.027344 193.367188 196.980469 195.414062 194.566406 197.144531 C 193.515625 198.195312 192.515625 198.511719 191.101562 198.511719 C 190.050781 198.144531 189.050781 197.828125 188.003906 196.777344 C 186.953125 195.730469 186.636719 194.367188 186.953125 193.316406 C 186.953125 191.953125 187.636719 190.902344 188.316406 190.222656 L 188.683594 189.855469 C 190.417969 188.488281 191.78125 186.757812 193.148438 185.027344 C 194.511719 183.296875 195.878906 181.25 196.925781 179.152344 C 197.609375 177.105469 198.292969 175.007812 198.976562 172.59375 C 199.34375 170.550781 199.65625 168.136719 199.65625 166.039062 C 199.65625 161.578125 198.976562 157.800781 197.242188 153.972656 C 195.878906 150.195312 193.460938 146.730469 190.679688 144.003906 C 187.582031 140.910156 184.117188 138.863281 180.335938 137.132812 C 176.871094 135.769531 172.777344 134.71875 168.628906 134.71875 C 166.214844 134.71875 164.167969 135.085938 162.433594 135.402344 C 160.386719 135.769531 158.289062 136.449219 156.238281 137.445312 C 154.507812 138.128906 152.460938 139.179688 150.726562 140.175781 C 148.996094 141.539062 147.628906 142.902344 145.898438 144.320312 C 145.214844 145.367188 143.851562 145.683594 142.800781 145.683594 C 141.433594 145.683594 140.386719 145.316406 139.335938 144.632812 C 138.285156 143.585938 137.96875 142.21875 137.96875 141.171875 C 137.601562 139.808594 138.335938 138.757812 139.019531 137.707031 C 141.066406 135.664062 143.167969 133.933594 145.214844 132.566406 C 147.628906 130.835938 150.046875 129.472656 152.460938 128.421875 C 153.824219 127.742188 155.191406 127.375 156.609375 127.058594 C 156.976562 126.691406 157.289062 126.691406 157.65625 126.691406 C 156.976562 126.011719 156.292969 124.960938 155.609375 124.277344 C 154.558594 122.546875 153.195312 120.816406 152.144531 119.136719 C 150.414062 116.042969 149.046875 112.949219 148.363281 109.851562 C 147.683594 107.441406 147 105.027344 147 102.613281 C 142.851562 104.660156 139.074219 107.441406 135.609375 110.167969 C 131.460938 113.945312 128.046875 117.722656 124.949219 122.234375 C 121.484375 127.375 118.753906 133.25 117.023438 139.125 C 114.976562 145 114.292969 151.191406 114.292969 157.382812 C 114.292969 161.839844 114.660156 166.351562 115.65625 170.8125 C 116.707031 175.269531 118.074219 179.414062 119.804688 183.558594 L 120.171875 183.925781 L 120.171875 183.558594 C 120.855469 185.605469 121.539062 187.019531 122.585938 188.699219 C 123.636719 190.429688 124.636719 191.796875 125.683594 193.527344 C 128.414062 197.671875 131.878906 201.082031 135.660156 204.542969 C 138.390625 206.589844 141.171875 208.6875 143.902344 210.734375 C 143.535156 209.367188 143.21875 208.003906 143.21875 206.957031 C 142.539062 203.859375 142.171875 201.082031 142.171875 198.351562 C 142.171875 196.304688 142.539062 194.574219 142.851562 192.476562 C 142.851562 190.429688 143.21875 188.699219 143.902344 186.601562 C 144.269531 184.871094 144.953125 182.824219 145.636719 181.09375 C 146.316406 179.363281 147.367188 177.632812 148.363281 175.953125 C 149.046875 174.902344 150.097656 173.90625 151.09375 173.539062 C 152.460938 173.171875 153.511719 173.539062 154.875 174.222656 C 155.925781 174.902344 156.609375 175.953125 156.921875 176.949219 C 157.289062 178.3125 157.289062 179.363281 156.554688 180.726562 C 155.871094 181.773438 155.191406 183.140625 154.507812 184.871094 C 153.824219 186.234375 153.457031 187.597656 153.140625 189.015625 C 152.460938 190.746094 152.460938 192.109375 152.09375 193.472656 C 151.726562 195.203125 151.726562 196.570312 151.726562 198.300781 C 151.726562 201.761719 152.40625 204.859375 153.089844 208.265625 C 154.140625 211.363281 155.503906 214.144531 157.238281 216.871094 C 157.605469 217.238281 157.921875 217.554688 158.289062 217.921875 C 158.65625 218.289062 158.65625 218.96875 158.96875 219.285156 C 159.335938 219.964844 159.652344 220.648438 160.335938 221.015625 C 160.703125 221.695312 161.386719 222.378906 162.066406 223.0625 C 165.53125 226.523438 169.3125 228.9375 173.460938 230.617188 C 177.609375 232.347656 182.070312 233.34375 186.898438 233.34375 C 187.949219 233.34375 188.632812 233.34375 189.316406 233.34375 C 189.996094 233.34375 191.046875 232.976562 191.730469 232.976562 C 192.414062 232.976562 193.09375 232.976562 193.777344 232.609375 C 194.460938 232.609375 195.511719 232.242188 196.191406 232.242188 C 197.558594 231.875 198.609375 231.875 199.65625 232.609375 C 200.707031 233.289062 201.703125 234.339844 202.074219 235.335938 C 202.441406 236.699219 202.074219 238.066406 201.390625 239.113281 C 201.023438 240.164062 200.023438 240.84375 198.660156 241.160156 C 197.609375 241.527344 196.925781 241.839844 195.929688 241.839844 C 194.878906 242.207031 193.882812 242.207031 192.832031 242.523438 C 191.78125 242.523438 190.785156 242.523438 190.101562 242.523438 C 189.050781 242.890625 188.054688 242.890625 187.003906 242.890625 C 181.125 242.890625 175.296875 241.527344 170.101562 239.429688 C 164.585938 237.015625 159.441406 233.921875 155.296875 229.777344 C 154.613281 228.726562 153.5625 227.730469 152.878906 227.046875 C 152.199219 226 151.515625 225.316406 150.832031 224.320312 C 144.269531 221.90625 138.074219 218.445312 132.5625 214.351562 C 127.050781 209.894531 121.90625 204.699219 118.074219 198.878906 C 117.390625 198.195312 116.707031 197.144531 116.339844 196.464844 L 115.972656 197.144531 C 115.289062 198.511719 114.921875 199.875 114.609375 201.605469 C 114.238281 203.652344 113.558594 206.0625 113.558594 208.84375 C 113.191406 211.257812 112.875 213.671875 112.875 216.082031 C 112.875 222.640625 113.925781 228.832031 115.972656 234.65625 C 117.703125 240.84375 120.433594 246.351562 124.214844 251.546875 C 127.3125 256.003906 131.09375 260.148438 135.238281 263.925781 C 138.703125 266.65625 142.484375 269.4375 146.632812 271.480469 C 147 270.433594 147 269.4375 147 268.386719 C 147.367188 266.65625 147.683594 264.925781 148.050781 263.246094 C 148.734375 261.515625 149.101562 259.78125 149.78125 258.105469 C 150.464844 256.742188 151.148438 255.007812 152.199219 253.644531 C 152.878906 252.28125 153.929688 251.597656 154.925781 251.230469 C 156.292969 250.863281 157.65625 251.230469 158.707031 251.597656 C 159.757812 252.28125 160.753906 253.332031 160.753906 254.695312 C 161.121094 255.742188 161.121094 257.109375 160.386719 258.15625 C 159.703125 259.519531 159.023438 260.570312 158.65625 261.933594 C 157.972656 263.296875 157.605469 264.347656 157.289062 265.710938 C 156.921875 267.074219 156.609375 268.4375 156.609375 269.855469 C 156.238281 271.21875 156.238281 272.582031 156.238281 274 C 156.238281 278.144531 156.921875 282.234375 158.65625 285.699219 C 160.019531 289.476562 162.433594 292.9375 165.21875 296.03125 C 168.316406 298.761719 171.78125 301.171875 175.558594 302.589844 C 179.023438 304.320312 183.121094 305.003906 187.265625 305.003906 C 191.730469 305.003906 195.511719 304.320312 199.34375 302.589844 C 203.121094 301.226562 206.585938 298.8125 209.316406 296.03125 C 212.414062 292.9375 214.460938 289.476562 216.195312 285.699219 C 217.664062 281.921875 218.664062 277.777344 218.664062 273.632812 Z M 218.664062 273.632812 " clip-rule="nonzero"/></clipPath><linearGradient x1="14681.958892" gradientTransform="matrix(0.0294893, 0, 0, 0.0294667, -329.131918, 26.137419)" y1="5426.729" x2="18903.64728" gradientUnits="userSpaceOnUse" y2="5426.729" id="7fd6619134"><stop stop-opacity="1" stop-color="rgb(0%, 77.249146%, 100%)" offset="0"/><stop stop-opacity="1" stop-color="rgb(0%, 77.146912%, 100%)" offset="0.0078125"/><stop stop-opacity="1" stop-color="rgb(0%, 76.91803%, 100%)" offset="0.015625"/><stop stop-opacity="1" stop-color="rgb(0%, 76.663208%, 100%)" offset="0.0234375"/><stop stop-opacity="1" stop-color="rgb(0%, 76.408386%, 100%)" offset="0.03125"/><stop stop-opacity="1" stop-color="rgb(0%, 76.153564%, 100%)" offset="0.0390625"/><stop stop-opacity="1" stop-color="rgb(0%, 75.898743%, 100%)" offset="0.046875"/><stop stop-opacity="1" stop-color="rgb(0%, 75.643921%, 100%)" offset="0.0546875"/><stop stop-opacity="1" stop-color="rgb(0%, 75.389099%, 100%)" offset="0.0625"/><stop stop-opacity="1" stop-color="rgb(0%, 75.134277%, 100%)" offset="0.0703125"/><stop stop-opacity="1" stop-color="rgb(0%, 74.879456%, 100%)" offset="0.078125"/><stop stop-opacity="1" stop-color="rgb(0%, 74.624634%, 100%)" offset="0.0859375"/><stop stop-opacity="1" stop-color="rgb(0%, 74.369812%, 100%)" offset="0.09375"/><stop stop-opacity="1" stop-color="rgb(0%, 74.11499%, 100%)" offset="0.101562"/><stop stop-opacity="1" stop-color="rgb(0%, 73.860168%, 100%)" offset="0.109375"/><stop stop-opacity="1" stop-color="rgb(0%, 73.605347%, 100%)" offset="0.117187"/><stop stop-opacity="1" stop-color="rgb(0%, 73.350525%, 100%)" offset="0.125"/><stop stop-opacity="1" stop-color="rgb(0%, 73.095703%, 100%)" offset="0.132813"/><stop stop-opacity="1" stop-color="rgb(0%, 72.840881%, 100%)" offset="0.140625"/><stop stop-opacity="1" stop-color="rgb(0%, 72.58606%, 100%)" offset="0.148438"/><stop stop-opacity="1" stop-color="rgb(0%, 72.331238%, 100%)" offset="0.15625"/><stop stop-opacity="1" stop-color="rgb(0%, 72.076416%, 100%)" offset="0.164063"/><stop stop-opacity="1" stop-color="rgb(0%, 71.821594%, 100%)" offset="0.171875"/><stop stop-opacity="1" stop-color="rgb(0%, 71.566772%, 100%)" offset="0.179688"/><stop stop-opacity="1" stop-color="rgb(0%, 71.311951%, 100%)" offset="0.1875"/><stop stop-opacity="1" stop-color="rgb(0%, 71.057129%, 100%)" offset="0.195312"/><stop stop-opacity="1" stop-color="rgb(0%, 70.802307%, 100%)" offset="0.203125"/><stop stop-opacity="1" stop-color="rgb(0%, 70.547485%, 100%)" offset="0.210938"/><stop stop-opacity="1" stop-color="rgb(0%, 70.292664%, 100%)" offset="0.21875"/><stop stop-opacity="1" stop-color="rgb(0%, 70.037842%, 100%)" offset="0.226563"/><stop stop-opacity="1" stop-color="rgb(0%, 69.78302%, 100%)" offset="0.234375"/><stop stop-opacity="1" stop-color="rgb(0%, 69.528198%, 100%)" offset="0.242188"/><stop stop-opacity="1" stop-color="rgb(0%, 69.273376%, 100%)" offset="0.25"/><stop stop-opacity="1" stop-color="rgb(0%, 69.018555%, 100%)" offset="0.257812"/><stop stop-opacity="1" stop-color="rgb(0%, 68.763733%, 100%)" offset="0.265625"/><stop stop-opacity="1" stop-color="rgb(0%, 68.508911%, 100%)" offset="0.273438"/><stop stop-opacity="1" stop-color="rgb(0%, 68.254089%, 100%)" offset="0.28125"/><stop stop-opacity="1" stop-color="rgb(0%, 67.999268%, 100%)" offset="0.289063"/><stop stop-opacity="1" stop-color="rgb(0%, 67.744446%, 100%)" offset="0.296875"/><stop stop-opacity="1" stop-color="rgb(0%, 67.489624%, 100%)" offset="0.304688"/><stop stop-opacity="1" stop-color="rgb(0%, 67.234802%, 100%)" offset="0.3125"/><stop stop-opacity="1" stop-color="rgb(0%, 66.97998%, 100%)" offset="0.320313"/><stop stop-opacity="1" stop-color="rgb(0%, 66.725159%, 100%)" offset="0.328125"/><stop stop-opacity="1" stop-color="rgb(0%, 66.470337%, 100%)" offset="0.335938"/><stop stop-opacity="1" stop-color="rgb(0%, 66.215515%, 100%)" offset="0.34375"/><stop stop-opacity="1" stop-color="rgb(0%, 65.960693%, 100%)" offset="0.351563"/><stop stop-opacity="1" stop-color="rgb(0%, 65.705872%, 100%)" offset="0.359375"/><stop stop-opacity="1" stop-color="rgb(0%, 65.45105%, 100%)" offset="0.367188"/><stop stop-opacity="1" stop-color="rgb(0%, 65.197754%, 100%)" offset="0.375"/><stop stop-opacity="1" stop-color="rgb(0%, 64.942932%, 100%)" offset="0.382813"/><stop stop-opacity="1" stop-color="rgb(0%, 64.68811%, 100%)" offset="0.390625"/><stop stop-opacity="1" stop-color="rgb(0%, 64.433289%, 100%)" offset="0.398438"/><stop stop-opacity="1" stop-color="rgb(0%, 64.178467%, 100%)" offset="0.40625"/><stop stop-opacity="1" stop-color="rgb(0%, 63.923645%, 100%)" offset="0.414063"/><stop stop-opacity="1" stop-color="rgb(0%, 63.668823%, 100%)" offset="0.421875"/><stop stop-opacity="1" stop-color="rgb(0%, 63.414001%, 100%)" offset="0.429688"/><stop stop-opacity="1" stop-color="rgb(0%, 63.15918%, 100%)" offset="0.4375"/><stop stop-opacity="1" stop-color="rgb(0%, 62.904358%, 100%)" offset="0.445313"/><stop stop-opacity="1" stop-color="rgb(0%, 62.649536%, 100%)" offset="0.453125"/><stop stop-opacity="1" stop-color="rgb(0%, 62.394714%, 100%)" offset="0.460938"/><stop stop-opacity="1" stop-color="rgb(0%, 62.139893%, 100%)" offset="0.46875"/><stop stop-opacity="1" stop-color="rgb(0%, 61.885071%, 100%)" offset="0.476563"/><stop stop-opacity="1" stop-color="rgb(0%, 61.630249%, 100%)" offset="0.484375"/><stop stop-opacity="1" stop-color="rgb(0%, 61.375427%, 100%)" offset="0.492188"/><stop stop-opacity="1" stop-color="rgb(0%, 61.120605%, 100%)" offset="0.5"/><stop stop-opacity="1" stop-color="rgb(0%, 60.865784%, 100%)" offset="0.507812"/><stop stop-opacity="1" stop-color="rgb(0%, 60.610962%, 100%)" offset="0.515625"/><stop stop-opacity="1" stop-color="rgb(0%, 60.35614%, 100%)" offset="0.523438"/><stop stop-opacity="1" stop-color="rgb(0%, 60.101318%, 100%)" offset="0.53125"/><stop stop-opacity="1" stop-color="rgb(0%, 59.846497%, 100%)" offset="0.539062"/><stop stop-opacity="1" stop-color="rgb(0%, 59.591675%, 100%)" offset="0.546875"/><stop stop-opacity="1" stop-color="rgb(0%, 59.336853%, 100%)" offset="0.554688"/><stop stop-opacity="1" stop-color="rgb(0%, 59.082031%, 100%)" offset="0.5625"/><stop stop-opacity="1" stop-color="rgb(0%, 58.827209%, 100%)" offset="0.570313"/><stop stop-opacity="1" stop-color="rgb(0%, 58.572388%, 100%)" offset="0.578125"/><stop stop-opacity="1" stop-color="rgb(0%, 58.317566%, 100%)" offset="0.585938"/><stop stop-opacity="1" stop-color="rgb(0%, 58.062744%, 100%)" offset="0.59375"/><stop stop-opacity="1" stop-color="rgb(0%, 57.807922%, 100%)" offset="0.601563"/><stop stop-opacity="1" stop-color="rgb(0%, 57.553101%, 100%)" offset="0.609375"/><stop stop-opacity="1" stop-color="rgb(0%, 57.298279%, 100%)" offset="0.617188"/><stop stop-opacity="1" stop-color="rgb(0%, 57.043457%, 100%)" offset="0.625"/><stop stop-opacity="1" stop-color="rgb(0%, 56.788635%, 100%)" offset="0.632813"/><stop stop-opacity="1" stop-color="rgb(0%, 56.533813%, 100%)" offset="0.640625"/><stop stop-opacity="1" stop-color="rgb(0%, 56.278992%, 100%)" offset="0.648438"/><stop stop-opacity="1" stop-color="rgb(0%, 56.02417%, 100%)" offset="0.65625"/><stop stop-opacity="1" stop-color="rgb(0%, 55.769348%, 100%)" offset="0.664063"/><stop stop-opacity="1" stop-color="rgb(0%, 55.514526%, 100%)" offset="0.671875"/><stop stop-opacity="1" stop-color="rgb(0%, 55.259705%, 100%)" offset="0.679688"/><stop stop-opacity="1" stop-color="rgb(0%, 55.004883%, 100%)" offset="0.6875"/><stop stop-opacity="1" stop-color="rgb(0%, 54.750061%, 100%)" offset="0.695313"/><stop stop-opacity="1" stop-color="rgb(0%, 54.495239%, 100%)" offset="0.703125"/><stop stop-opacity="1" stop-color="rgb(0%, 54.240417%, 100%)" offset="0.710938"/><stop stop-opacity="1" stop-color="rgb(0%, 53.985596%, 100%)" offset="0.71875"/><stop stop-opacity="1" stop-color="rgb(0%, 53.730774%, 100%)" offset="0.726563"/><stop stop-opacity="1" stop-color="rgb(0%, 53.475952%, 100%)" offset="0.734375"/><stop stop-opacity="1" stop-color="rgb(0%, 53.22113%, 100%)" offset="0.742188"/><stop stop-opacity="1" stop-color="rgb(0%, 52.966309%, 100%)" offset="0.75"/><stop stop-opacity="1" stop-color="rgb(0%, 52.711487%, 100%)" offset="0.757813"/><stop stop-opacity="1" stop-color="rgb(0%, 52.456665%, 100%)" offset="0.765625"/><stop stop-opacity="1" stop-color="rgb(0%, 52.203369%, 100%)" offset="0.773438"/><stop stop-opacity="1" stop-color="rgb(0%, 51.948547%, 100%)" offset="0.78125"/><stop stop-opacity="1" stop-color="rgb(0%, 51.693726%, 100%)" offset="0.789063"/><stop stop-opacity="1" stop-color="rgb(0%, 51.438904%, 100%)" offset="0.796875"/><stop stop-opacity="1" stop-color="rgb(0%, 51.184082%, 100%)" offset="0.804688"/><stop stop-opacity="1" stop-color="rgb(0%, 50.92926%, 100%)" offset="0.8125"/><stop stop-opacity="1" stop-color="rgb(0%, 50.674438%, 100%)" offset="0.820313"/><stop stop-opacity="1" stop-color="rgb(0%, 50.419617%, 100%)" offset="0.828125"/><stop stop-opacity="1" stop-color="rgb(0%, 50.164795%, 100%)" offset="0.835938"/><stop stop-opacity="1" stop-color="rgb(0%, 49.909973%, 100%)" offset="0.84375"/><stop stop-opacity="1" stop-color="rgb(0%, 49.655151%, 100%)" offset="0.851563"/><stop stop-opacity="1" stop-color="rgb(0%, 49.40033%, 100%)" offset="0.859375"/><stop stop-opacity="1" stop-color="rgb(0%, 49.145508%, 100%)" offset="0.867188"/><stop stop-opacity="1" stop-color="rgb(0%, 48.890686%, 100%)" offset="0.875"/><stop stop-opacity="1" stop-color="rgb(0%, 48.635864%, 100%)" offset="0.882812"/><stop stop-opacity="1" stop-color="rgb(0%, 48.381042%, 100%)" offset="0.890625"/><stop stop-opacity="1" stop-color="rgb(0%, 48.126221%, 100%)" offset="0.898438"/><stop stop-opacity="1" stop-color="rgb(0%, 47.871399%, 100%)" offset="0.90625"/><stop stop-opacity="1" stop-color="rgb(0%, 47.616577%, 100%)" offset="0.914062"/><stop stop-opacity="1" stop-color="rgb(0%, 47.361755%, 100%)" offset="0.921875"/><stop stop-opacity="1" stop-color="rgb(0%, 47.106934%, 100%)" offset="0.929688"/><stop stop-opacity="1" stop-color="rgb(0%, 46.852112%, 100%)" offset="0.9375"/><stop stop-opacity="1" stop-color="rgb(0%, 46.59729%, 100%)" offset="0.945312"/><stop stop-opacity="1" stop-color="rgb(0%, 46.342468%, 100%)" offset="0.953125"/><stop stop-opacity="1" stop-color="rgb(0%, 46.087646%, 100%)" offset="0.960938"/><stop stop-opacity="1" stop-color="rgb(0%, 45.832825%, 100%)" offset="0.96875"/><stop stop-opacity="1" stop-color="rgb(0%, 45.578003%, 100%)" offset="0.976562"/><stop stop-opacity="1" stop-color="rgb(0%, 45.323181%, 100%)" offset="0.984375"/><stop stop-opacity="1" stop-color="rgb(0%, 45.068359%, 100%)" offset="0.992188"/><stop stop-opacity="1" stop-color="rgb(0%, 44.825745%, 100%)" offset="1"/></linearGradient><clipPath id="f3f1bdf301"><path d="M 241 57.773438 L 366.292969 57.773438 L 366.292969 314.273438 L 241 314.273438 Z M 241 57.773438 " clip-rule="nonzero"/></clipPath><clipPath id="c15a83cc6a"><path d="M 241.761719 99.097656 L 241.761719 273.632812 C 241.761719 279.140625 242.8125 284.28125 244.859375 289.109375 C 246.90625 293.933594 249.691406 298.394531 253.46875 302.171875 C 257.25 305.949219 261.710938 309.042969 266.910156 311.140625 C 271.738281 313.1875 276.886719 314.238281 282.398438 314.238281 C 293.421875 314.238281 303.765625 309.777344 310.800781 302.171875 C 313.898438 299.441406 316.3125 295.980469 318.046875 292.519531 C 319.777344 289.421875 321.140625 285.644531 321.824219 282.183594 C 328.019531 279.457031 333.898438 275.992188 339.046875 271.847656 C 344.558594 267.703125 349.386719 262.5625 353.167969 256.6875 C 357.316406 250.8125 360.726562 244.308594 362.828125 237.066406 C 364.875 230.511719 366.292969 223.324219 366.292969 215.714844 C 366.292969 212.988281 365.925781 210.207031 365.609375 207.113281 C 365.242188 204.386719 364.925781 201.605469 364.246094 198.878906 C 363.5625 196.464844 362.878906 194.050781 361.828125 191.636719 C 361.148438 189.222656 360.097656 187.179688 359.414062 185.082031 C 361.148438 180.621094 362.511719 176.109375 363.5625 171.652344 C 364.613281 166.824219 364.925781 161.996094 364.925781 156.855469 C 364.925781 149.617188 363.878906 142.378906 361.828125 135.871094 C 359.78125 129 356.683594 122.441406 352.539062 116.621094 C 348.757812 111.113281 344.296875 105.972656 338.78125 101.460938 C 333.953125 97.316406 328.441406 93.90625 322.246094 91.125 C 321.5625 87.347656 320.199219 83.570312 318.464844 80.109375 C 316.734375 75.964844 314.003906 72.554688 310.90625 69.457031 C 307.125 65.996094 302.664062 62.902344 297.832031 60.855469 C 292.898438 58.863281 287.753906 57.8125 282.238281 57.8125 C 276.726562 57.8125 271.582031 58.863281 266.753906 60.90625 C 261.609375 62.953125 257.09375 66.050781 253.3125 69.511719 C 249.53125 73.289062 246.75 77.746094 244.703125 82.941406 C 242.8125 88.449219 241.761719 93.589844 241.761719 99.097656 Z M 251.054688 273.632812 L 251.054688 99.097656 C 251.054688 94.953125 252.105469 90.863281 253.46875 87.03125 C 255.203125 83.253906 257.617188 79.792969 260.347656 77.066406 C 263.078125 74.335938 266.542969 71.925781 270.324219 70.191406 C 274.101562 68.828125 278.25 68.148438 282.398438 68.148438 C 286.546875 68.148438 290.640625 68.828125 294.105469 70.191406 C 297.886719 71.925781 301.351562 74.335938 304.449219 77.066406 C 307.175781 79.792969 309.59375 83.253906 311.011719 87.03125 C 312.742188 90.808594 313.425781 94.953125 313.425781 99.097656 C 313.425781 101.828125 313.058594 104.605469 312.375 107.019531 C 311.691406 109.746094 310.640625 112.160156 309.277344 114.574219 C 307.914062 116.988281 306.546875 119.035156 304.449219 120.765625 C 302.714844 122.496094 300.984375 124.226562 298.933594 125.589844 C 293.789062 125.957031 288.960938 126.953125 284.8125 129.054688 C 279.984375 131.097656 275.835938 133.878906 272.421875 137.289062 C 268.640625 141.066406 265.546875 145.527344 263.445312 150.71875 C 261.710938 155.179688 260.347656 160.6875 260.347656 166.195312 C 260.347656 168.921875 260.714844 172.070312 261.398438 174.796875 C 262.078125 177.894531 263.128906 180.671875 264.496094 183.402344 C 265.546875 186.128906 267.226562 188.542969 268.957031 190.957031 C 270.691406 193.367188 272.738281 195.414062 275.152344 197.144531 C 276.203125 198.195312 277.566406 198.511719 278.617188 198.511719 C 279.667969 198.144531 281.03125 197.828125 281.714844 196.777344 C 282.765625 195.730469 283.078125 194.367188 283.078125 193.316406 C 282.710938 191.953125 282.398438 190.902344 281.347656 190.222656 L 281.347656 190.011719 C 279.300781 188.648438 277.882812 186.917969 276.515625 185.183594 C 275.152344 183.453125 273.789062 181.40625 273.050781 179.308594 C 272.003906 177.265625 271.320312 175.164062 270.636719 172.753906 C 270.269531 170.707031 269.953125 168.292969 269.953125 166.195312 C 269.953125 161.734375 271.003906 157.957031 272.371094 154.128906 C 274.101562 150.351562 276.148438 146.890625 279.246094 144.160156 C 281.976562 141.066406 285.441406 139.019531 289.222656 137.289062 C 293.003906 135.925781 296.78125 134.875 301.296875 134.875 C 303.34375 134.875 305.445312 135.242188 307.492188 135.558594 C 309.539062 135.925781 311.273438 136.605469 313.371094 137.605469 C 315.421875 138.285156 317.152344 139.335938 318.886719 140.332031 C 320.617188 141.695312 322.351562 143.058594 323.714844 144.476562 C 324.398438 145.527344 325.761719 145.839844 327.179688 145.839844 C 328.230469 145.839844 329.59375 145.472656 330.277344 144.792969 C 331.328125 143.742188 332.011719 142.378906 332.011719 141.328125 C 332.011719 139.964844 331.328125 138.914062 330.644531 137.867188 C 328.597656 135.820312 326.496094 134.089844 324.449219 132.726562 C 322.035156 130.992188 319.621094 129.628906 317.203125 128.582031 C 315.839844 127.898438 314.476562 127.53125 313.058594 127.21875 C 312.691406 126.851562 312.375 126.851562 312.007812 126.851562 C 312.691406 126.167969 313.371094 125.117188 314.054688 124.4375 C 315.421875 122.707031 316.46875 120.972656 317.519531 119.296875 C 319.253906 116.199219 320.617188 113.105469 321.667969 110.011719 C 322.351562 107.597656 322.71875 105.183594 322.71875 102.769531 C 326.863281 104.816406 330.644531 107.597656 334.109375 110.324219 C 338.257812 114.101562 341.671875 117.878906 344.765625 122.390625 C 348.234375 127.53125 350.960938 133.40625 353.011719 139.28125 C 354.742188 145.160156 355.425781 151.347656 355.425781 157.539062 C 355.425781 161.996094 355.058594 166.507812 354.058594 170.96875 C 353.011719 175.425781 351.644531 179.570312 349.914062 183.714844 L 349.914062 184.082031 L 349.914062 183.714844 C 348.863281 185.761719 348.179688 187.179688 347.183594 188.855469 C 346.132812 190.589844 345.136719 191.953125 344.085938 193.683594 C 341.355469 197.828125 337.890625 201.238281 334.109375 204.699219 C 331.695312 206.746094 328.597656 208.84375 325.867188 210.890625 C 326.234375 209.527344 326.550781 208.164062 326.550781 207.113281 C 327.234375 204.019531 327.601562 201.238281 327.601562 198.511719 C 327.601562 196.464844 327.234375 194.734375 327.234375 192.632812 C 326.863281 190.589844 326.550781 188.855469 325.867188 186.757812 C 325.5 185.027344 324.816406 182.980469 324.136719 181.25 C 323.453125 179.519531 322.402344 177.789062 321.40625 176.109375 C 320.722656 175.058594 319.671875 174.0625 318.675781 173.695312 C 317.625 173.328125 316.261719 173.695312 314.894531 174.378906 L 315.261719 174.378906 C 313.898438 175.058594 313.214844 176.109375 312.847656 177.105469 C 312.480469 178.46875 312.480469 179.519531 313.214844 180.882812 C 314.265625 181.933594 314.949219 183.296875 315.261719 185.027344 C 315.945312 186.390625 316.3125 187.753906 316.996094 189.171875 C 317.363281 190.902344 317.675781 192.265625 317.675781 193.632812 C 318.046875 195.363281 318.046875 196.726562 318.046875 198.457031 C 318.046875 201.917969 317.675781 205.015625 316.679688 208.425781 C 315.628906 211.519531 314.265625 214.300781 312.898438 217.027344 C 312.21875 217.394531 311.851562 217.710938 311.535156 218.078125 C 311.535156 218.445312 311.167969 219.125 310.851562 219.441406 C 310.484375 220.125 310.171875 220.804688 309.488281 221.171875 C 309.121094 221.855469 308.4375 222.535156 307.753906 223.21875 C 304.65625 226.679688 300.511719 229.09375 296.363281 230.773438 C 292.214844 232.503906 287.753906 233.5 282.921875 233.5 C 281.871094 233.5 281.191406 233.5 280.507812 233.5 C 279.824219 233.5 279.140625 233.132812 278.09375 233.132812 C 277.410156 233.132812 276.726562 233.132812 276.046875 232.765625 C 275.363281 232.765625 274.679688 232.398438 273.628906 232.398438 C 272.578125 232.03125 271.214844 232.03125 270.164062 232.765625 C 269.113281 233.449219 268.117188 234.496094 267.75 235.492188 C 267.382812 236.859375 267.75 238.222656 268.433594 239.269531 C 269.113281 240.320312 270.164062 241.003906 271.164062 241.316406 C 272.210938 241.683594 273.210938 242 273.890625 242 C 274.941406 242.367188 275.941406 242.367188 276.988281 242.679688 C 278.039062 242.679688 279.039062 242.679688 279.71875 242.679688 C 280.769531 243.046875 281.765625 243.046875 282.816406 243.046875 C 288.699219 243.046875 294.523438 241.683594 300.039062 239.585938 C 305.183594 237.171875 310.378906 234.078125 314.527344 229.933594 C 315.210938 228.882812 316.261719 227.886719 316.941406 227.207031 C 317.625 226.15625 318.308594 225.472656 318.988281 224.476562 C 325.550781 222.0625 331.746094 218.601562 337.261719 214.511719 C 342.773438 210.050781 347.917969 204.859375 352.066406 199.035156 C 352.433594 198.351562 353.113281 197.304688 353.796875 196.621094 L 353.796875 197.304688 C 354.480469 198.667969 354.847656 200.03125 355.164062 201.761719 C 355.84375 203.808594 356.210938 206.222656 356.527344 209 C 356.527344 211.414062 356.894531 213.828125 356.894531 216.242188 C 356.894531 222.796875 355.84375 228.988281 354.164062 234.8125 C 352.117188 241.003906 349.335938 246.511719 345.921875 251.703125 C 342.457031 256.164062 339.046875 260.308594 334.53125 264.085938 C 331.066406 266.8125 327.285156 269.59375 323.136719 271.640625 C 323.136719 270.589844 322.769531 269.59375 322.769531 268.542969 C 322.402344 266.8125 322.085938 265.082031 321.71875 263.402344 C 321.351562 261.671875 320.671875 259.941406 319.988281 258.261719 C 319.304688 256.898438 318.621094 255.167969 317.574219 253.800781 C 316.890625 252.4375 315.839844 251.757812 314.84375 251.390625 C 313.476562 251.023438 312.113281 251.390625 311.0625 251.757812 C 310.011719 252.4375 309.328125 253.488281 309.015625 254.851562 C 308.648438 255.902344 308.648438 257.265625 309.382812 258.3125 C 310.066406 259.679688 310.746094 260.726562 311.113281 262.089844 C 311.796875 263.457031 312.164062 264.503906 312.480469 265.867188 C 312.847656 267.230469 313.164062 268.597656 313.164062 270.011719 C 313.53125 271.375 313.53125 272.742188 313.53125 274.15625 C 313.53125 278.300781 312.847656 282.394531 311.113281 285.855469 C 309.75 289.632812 307.335938 293.09375 304.550781 296.191406 C 301.453125 298.917969 297.988281 301.332031 294.210938 302.746094 C 290.746094 304.480469 286.648438 305.160156 282.503906 305.160156 C 278.355469 305.160156 274.261719 304.480469 270.425781 302.746094 C 266.648438 301.382812 263.183594 298.96875 260.453125 296.191406 C 257.722656 293.09375 255.308594 289.632812 253.574219 285.855469 C 252.105469 281.921875 251.054688 277.777344 251.054688 273.632812 Z M 251.054688 273.632812 " clip-rule="nonzero"/></clipPath><linearGradient x1="19359.40635" gradientTransform="matrix(0.0294893, 0, 0, 0.0294667, -329.131918, 26.137419)" y1="5426.729" x2="23582.300271" gradientUnits="userSpaceOnUse" y2="5426.729" id="cfb34a6e48"><stop stop-opacity="1" stop-color="rgb(95.289612%, 17.649841%, 47.059631%)" offset="0"/><stop stop-opacity="1" stop-color="rgb(95.213318%, 17.764282%, 47.254944%)" offset="0.0078125"/><stop stop-opacity="1" stop-color="rgb(95.057678%, 17.996216%, 47.651672%)" offset="0.0117188"/><stop stop-opacity="1" stop-color="rgb(94.979858%, 18.115234%, 47.853088%)" offset="0.015625"/><stop stop-opacity="1" stop-color="rgb(94.902039%, 18.232727%, 48.052979%)" offset="0.0195313"/><stop stop-opacity="1" stop-color="rgb(94.824219%, 18.351746%, 48.254395%)" offset="0.0234375"/><stop stop-opacity="1" stop-color="rgb(94.744873%, 18.469238%, 48.455811%)" offset="0.0273438"/><stop stop-opacity="1" stop-color="rgb(94.667053%, 18.588257%, 48.657227%)" offset="0.03125"/><stop stop-opacity="1" stop-color="rgb(94.587708%, 18.70575%, 48.858643%)" offset="0.0351562"/><stop stop-opacity="1" stop-color="rgb(94.509888%, 18.824768%, 49.060059%)" offset="0.0390625"/><stop stop-opacity="1" stop-color="rgb(94.432068%, 18.942261%, 49.259949%)" offset="0.0429688"/><stop stop-opacity="1" stop-color="rgb(94.354248%, 19.061279%, 49.461365%)" offset="0.046875"/><stop stop-opacity="1" stop-color="rgb(94.274902%, 19.178772%, 49.662781%)" offset="0.0507813"/><stop stop-opacity="1" stop-color="rgb(94.197083%, 19.297791%, 49.864197%)" offset="0.0546875"/><stop stop-opacity="1" stop-color="rgb(94.117737%, 19.415283%, 50.065613%)" offset="0.0585938"/><stop stop-opacity="1" stop-color="rgb(94.039917%, 19.534302%, 50.267029%)" offset="0.0625"/><stop stop-opacity="1" stop-color="rgb(93.962097%, 19.651794%, 50.466919%)" offset="0.0664063"/><stop stop-opacity="1" stop-color="rgb(93.884277%, 19.770813%, 50.668335%)" offset="0.0703125"/><stop stop-opacity="1" stop-color="rgb(93.804932%, 19.888306%, 50.869751%)" offset="0.0742188"/><stop stop-opacity="1" stop-color="rgb(93.727112%, 20.007324%, 51.071167%)" offset="0.078125"/><stop stop-opacity="1" stop-color="rgb(93.647766%, 20.124817%, 51.272583%)" offset="0.0820313"/><stop stop-opacity="1" stop-color="rgb(93.569946%, 20.243835%, 51.473999%)" offset="0.0859375"/><stop stop-opacity="1" stop-color="rgb(93.492126%, 20.361328%, 51.673889%)" offset="0.0898438"/><stop stop-opacity="1" stop-color="rgb(93.414307%, 20.480347%, 51.875305%)" offset="0.09375"/><stop stop-opacity="1" stop-color="rgb(93.334961%, 20.597839%, 52.076721%)" offset="0.0976563"/><stop stop-opacity="1" stop-color="rgb(93.257141%, 20.716858%, 52.278137%)" offset="0.101562"/><stop stop-opacity="1" stop-color="rgb(93.177795%, 20.834351%, 52.479553%)" offset="0.105469"/><stop stop-opacity="1" stop-color="rgb(93.099976%, 20.953369%, 52.680969%)" offset="0.109375"/><stop stop-opacity="1" stop-color="rgb(93.022156%, 21.070862%, 52.882385%)" offset="0.113281"/><stop stop-opacity="1" stop-color="rgb(92.944336%, 21.18988%, 53.083801%)" offset="0.117188"/><stop stop-opacity="1" stop-color="rgb(92.86499%, 21.307373%, 53.283691%)" offset="0.121094"/><stop stop-opacity="1" stop-color="rgb(92.78717%, 21.426392%, 53.485107%)" offset="0.125"/><stop stop-opacity="1" stop-color="rgb(92.707825%, 21.543884%, 53.686523%)" offset="0.128906"/><stop stop-opacity="1" stop-color="rgb(92.630005%, 21.662903%, 53.887939%)" offset="0.132813"/><stop stop-opacity="1" stop-color="rgb(92.552185%, 21.780396%, 54.089355%)" offset="0.136719"/><stop stop-opacity="1" stop-color="rgb(92.474365%, 21.899414%, 54.290771%)" offset="0.140625"/><stop stop-opacity="1" stop-color="rgb(92.39502%, 22.016907%, 54.490662%)" offset="0.144531"/><stop stop-opacity="1" stop-color="rgb(92.3172%, 22.135925%, 54.692078%)" offset="0.148438"/><stop stop-opacity="1" stop-color="rgb(92.237854%, 22.253418%, 54.893494%)" offset="0.152344"/><stop stop-opacity="1" stop-color="rgb(92.160034%, 22.372437%, 55.09491%)" offset="0.15625"/><stop stop-opacity="1" stop-color="rgb(92.082214%, 22.489929%, 55.296326%)" offset="0.160156"/><stop stop-opacity="1" stop-color="rgb(92.004395%, 22.608948%, 55.497742%)" offset="0.164063"/><stop stop-opacity="1" stop-color="rgb(91.925049%, 22.72644%, 55.697632%)" offset="0.167969"/><stop stop-opacity="1" stop-color="rgb(91.847229%, 22.843933%, 55.899048%)" offset="0.171875"/><stop stop-opacity="1" stop-color="rgb(91.767883%, 22.961426%, 56.100464%)" offset="0.175781"/><stop stop-opacity="1" stop-color="rgb(91.690063%, 23.080444%, 56.30188%)" offset="0.179688"/><stop stop-opacity="1" stop-color="rgb(91.612244%, 23.197937%, 56.503296%)" offset="0.183594"/><stop stop-opacity="1" stop-color="rgb(91.534424%, 23.316956%, 56.704712%)" offset="0.1875"/><stop stop-opacity="1" stop-color="rgb(91.455078%, 23.434448%, 56.904602%)" offset="0.191406"/><stop stop-opacity="1" stop-color="rgb(91.377258%, 23.553467%, 57.106018%)" offset="0.195313"/><stop stop-opacity="1" stop-color="rgb(91.297913%, 23.670959%, 57.307434%)" offset="0.199219"/><stop stop-opacity="1" stop-color="rgb(91.220093%, 23.789978%, 57.50885%)" offset="0.203125"/><stop stop-opacity="1" stop-color="rgb(91.142273%, 23.907471%, 57.710266%)" offset="0.207031"/><stop stop-opacity="1" stop-color="rgb(91.064453%, 24.026489%, 57.911682%)" offset="0.210938"/><stop stop-opacity="1" stop-color="rgb(90.985107%, 24.143982%, 58.111572%)" offset="0.214844"/><stop stop-opacity="1" stop-color="rgb(90.907288%, 24.263%, 58.312988%)" offset="0.21875"/><stop stop-opacity="1" stop-color="rgb(90.829468%, 24.380493%, 58.514404%)" offset="0.222656"/><stop stop-opacity="1" stop-color="rgb(90.751648%, 24.499512%, 58.71582%)" offset="0.226563"/><stop stop-opacity="1" stop-color="rgb(90.672302%, 24.617004%, 58.917236%)" offset="0.230469"/><stop stop-opacity="1" stop-color="rgb(90.594482%, 24.736023%, 59.118652%)" offset="0.234375"/><stop stop-opacity="1" stop-color="rgb(90.515137%, 24.853516%, 59.318542%)" offset="0.238281"/><stop stop-opacity="1" stop-color="rgb(90.437317%, 24.972534%, 59.519958%)" offset="0.242188"/><stop stop-opacity="1" stop-color="rgb(90.359497%, 25.090027%, 59.721375%)" offset="0.246094"/><stop stop-opacity="1" stop-color="rgb(90.281677%, 25.209045%, 59.922791%)" offset="0.25"/><stop stop-opacity="1" stop-color="rgb(90.202332%, 25.326538%, 60.124207%)" offset="0.253906"/><stop stop-opacity="1" stop-color="rgb(90.124512%, 25.445557%, 60.325623%)" offset="0.257813"/><stop stop-opacity="1" stop-color="rgb(90.045166%, 25.563049%, 60.527039%)" offset="0.261719"/><stop stop-opacity="1" stop-color="rgb(89.967346%, 25.682068%, 60.728455%)" offset="0.265625"/><stop stop-opacity="1" stop-color="rgb(89.889526%, 25.799561%, 60.928345%)" offset="0.269531"/><stop stop-opacity="1" stop-color="rgb(89.811707%, 25.918579%, 61.129761%)" offset="0.273438"/><stop stop-opacity="1" stop-color="rgb(89.732361%, 26.036072%, 61.331177%)" offset="0.277344"/><stop stop-opacity="1" stop-color="rgb(89.654541%, 26.15509%, 61.532593%)" offset="0.28125"/><stop stop-opacity="1" stop-color="rgb(89.575195%, 26.272583%, 61.734009%)" offset="0.285156"/><stop stop-opacity="1" stop-color="rgb(89.497375%, 26.391602%, 61.935425%)" offset="0.289062"/><stop stop-opacity="1" stop-color="rgb(89.419556%, 26.509094%, 62.135315%)" offset="0.292969"/><stop stop-opacity="1" stop-color="rgb(89.341736%, 26.628113%, 62.336731%)" offset="0.296875"/><stop stop-opacity="1" stop-color="rgb(89.26239%, 26.745605%, 62.538147%)" offset="0.300781"/><stop stop-opacity="1" stop-color="rgb(89.18457%, 26.864624%, 62.739563%)" offset="0.304688"/><stop stop-opacity="1" stop-color="rgb(89.105225%, 26.982117%, 62.940979%)" offset="0.308594"/><stop stop-opacity="1" stop-color="rgb(89.027405%, 27.101135%, 63.142395%)" offset="0.3125"/><stop stop-opacity="1" stop-color="rgb(88.949585%, 27.218628%, 63.342285%)" offset="0.316406"/><stop stop-opacity="1" stop-color="rgb(88.871765%, 27.337646%, 63.543701%)" offset="0.320313"/><stop stop-opacity="1" stop-color="rgb(88.792419%, 27.455139%, 63.745117%)" offset="0.324219"/><stop stop-opacity="1" stop-color="rgb(88.7146%, 27.574158%, 63.946533%)" offset="0.328125"/><stop stop-opacity="1" stop-color="rgb(88.635254%, 27.69165%, 64.147949%)" offset="0.332031"/><stop stop-opacity="1" stop-color="rgb(88.557434%, 27.810669%, 64.349365%)" offset="0.335938"/><stop stop-opacity="1" stop-color="rgb(88.479614%, 27.928162%, 64.549255%)" offset="0.339844"/><stop stop-opacity="1" stop-color="rgb(88.401794%, 28.04718%, 64.750671%)" offset="0.34375"/><stop stop-opacity="1" stop-color="rgb(88.322449%, 28.164673%, 64.952087%)" offset="0.347656"/><stop stop-opacity="1" stop-color="rgb(88.244629%, 28.283691%, 65.153503%)" offset="0.351563"/><stop stop-opacity="1" stop-color="rgb(88.165283%, 28.401184%, 65.354919%)" offset="0.355469"/><stop stop-opacity="1" stop-color="rgb(88.087463%, 28.520203%, 65.556335%)" offset="0.359375"/><stop stop-opacity="1" stop-color="rgb(88.009644%, 28.637695%, 65.756226%)" offset="0.363281"/><stop stop-opacity="1" stop-color="rgb(87.931824%, 28.756714%, 65.957642%)" offset="0.367188"/><stop stop-opacity="1" stop-color="rgb(87.852478%, 28.874207%, 66.159058%)" offset="0.371094"/><stop stop-opacity="1" stop-color="rgb(87.774658%, 28.993225%, 66.360474%)" offset="0.375"/><stop stop-opacity="1" stop-color="rgb(87.695312%, 29.110718%, 66.56189%)" offset="0.378906"/><stop stop-opacity="1" stop-color="rgb(87.617493%, 29.229736%, 66.763306%)" offset="0.382813"/><stop stop-opacity="1" stop-color="rgb(87.539673%, 29.347229%, 66.963196%)" offset="0.386719"/><stop stop-opacity="1" stop-color="rgb(87.461853%, 29.466248%, 67.164612%)" offset="0.390625"/><stop stop-opacity="1" stop-color="rgb(87.382507%, 29.58374%, 67.366028%)" offset="0.394531"/><stop stop-opacity="1" stop-color="rgb(87.304688%, 29.701233%, 67.567444%)" offset="0.398438"/><stop stop-opacity="1" stop-color="rgb(87.225342%, 29.818726%, 67.76886%)" offset="0.402344"/><stop stop-opacity="1" stop-color="rgb(87.147522%, 29.937744%, 67.970276%)" offset="0.40625"/><stop stop-opacity="1" stop-color="rgb(87.069702%, 30.055237%, 68.170166%)" offset="0.410156"/><stop stop-opacity="1" stop-color="rgb(86.991882%, 30.174255%, 68.371582%)" offset="0.414062"/><stop stop-opacity="1" stop-color="rgb(86.912537%, 30.291748%, 68.572998%)" offset="0.417969"/><stop stop-opacity="1" stop-color="rgb(86.834717%, 30.410767%, 68.774414%)" offset="0.421875"/><stop stop-opacity="1" stop-color="rgb(86.755371%, 30.528259%, 68.97583%)" offset="0.425781"/><stop stop-opacity="1" stop-color="rgb(86.677551%, 30.647278%, 69.177246%)" offset="0.429688"/><stop stop-opacity="1" stop-color="rgb(86.599731%, 30.764771%, 69.378662%)" offset="0.433594"/><stop stop-opacity="1" stop-color="rgb(86.521912%, 30.883789%, 69.580078%)" offset="0.4375"/><stop stop-opacity="1" stop-color="rgb(86.442566%, 31.001282%, 69.779968%)" offset="0.441406"/><stop stop-opacity="1" stop-color="rgb(86.364746%, 31.1203%, 69.981384%)" offset="0.445313"/><stop stop-opacity="1" stop-color="rgb(86.2854%, 31.237793%, 70.1828%)" offset="0.449219"/><stop stop-opacity="1" stop-color="rgb(86.207581%, 31.356812%, 70.384216%)" offset="0.453125"/><stop stop-opacity="1" stop-color="rgb(86.129761%, 31.474304%, 70.585632%)" offset="0.457031"/><stop stop-opacity="1" stop-color="rgb(86.051941%, 31.593323%, 70.787048%)" offset="0.460938"/><stop stop-opacity="1" stop-color="rgb(85.972595%, 31.710815%, 70.986938%)" offset="0.464844"/><stop stop-opacity="1" stop-color="rgb(85.894775%, 31.829834%, 71.188354%)" offset="0.46875"/><stop stop-opacity="1" stop-color="rgb(85.81543%, 31.947327%, 71.389771%)" offset="0.472656"/><stop stop-opacity="1" stop-color="rgb(85.73761%, 32.066345%, 71.591187%)" offset="0.476563"/><stop stop-opacity="1" stop-color="rgb(85.65979%, 32.183838%, 71.792603%)" offset="0.480469"/><stop stop-opacity="1" stop-color="rgb(85.58197%, 32.302856%, 71.994019%)" offset="0.484375"/><stop stop-opacity="1" stop-color="rgb(85.502625%, 32.420349%, 72.193909%)" offset="0.488281"/><stop stop-opacity="1" stop-color="rgb(85.424805%, 32.539368%, 72.395325%)" offset="0.492188"/><stop stop-opacity="1" stop-color="rgb(85.345459%, 32.65686%, 72.596741%)" offset="0.496094"/><stop stop-opacity="1" stop-color="rgb(85.267639%, 32.775879%, 72.798157%)" offset="0.5"/><stop stop-opacity="1" stop-color="rgb(85.189819%, 32.893372%, 72.999573%)" offset="0.503906"/><stop stop-opacity="1" stop-color="rgb(85.112%, 33.01239%, 73.200989%)" offset="0.507812"/><stop stop-opacity="1" stop-color="rgb(85.032654%, 33.129883%, 73.400879%)" offset="0.511719"/><stop stop-opacity="1" stop-color="rgb(84.954834%, 33.248901%, 73.602295%)" offset="0.515625"/><stop stop-opacity="1" stop-color="rgb(84.875488%, 33.366394%, 73.803711%)" offset="0.519531"/><stop stop-opacity="1" stop-color="rgb(84.797668%, 33.485413%, 74.005127%)" offset="0.523438"/><stop stop-opacity="1" stop-color="rgb(84.719849%, 33.602905%, 74.206543%)" offset="0.527344"/><stop stop-opacity="1" stop-color="rgb(84.642029%, 33.721924%, 74.407959%)" offset="0.53125"/><stop stop-opacity="1" stop-color="rgb(84.562683%, 33.839417%, 74.607849%)" offset="0.535156"/><stop stop-opacity="1" stop-color="rgb(84.484863%, 33.958435%, 74.809265%)" offset="0.539062"/><stop stop-opacity="1" stop-color="rgb(84.405518%, 34.075928%, 75.010681%)" offset="0.542969"/><stop stop-opacity="1" stop-color="rgb(84.327698%, 34.194946%, 75.212097%)" offset="0.546875"/><stop stop-opacity="1" stop-color="rgb(84.249878%, 34.312439%, 75.413513%)" offset="0.550781"/><stop stop-opacity="1" stop-color="rgb(84.172058%, 34.431458%, 75.614929%)" offset="0.554688"/><stop stop-opacity="1" stop-color="rgb(84.092712%, 34.54895%, 75.814819%)" offset="0.558594"/><stop stop-opacity="1" stop-color="rgb(84.014893%, 34.667969%, 76.016235%)" offset="0.5625"/><stop stop-opacity="1" stop-color="rgb(83.935547%, 34.785461%, 76.217651%)" offset="0.566406"/><stop stop-opacity="1" stop-color="rgb(83.857727%, 34.90448%, 76.419067%)" offset="0.570312"/><stop stop-opacity="1" stop-color="rgb(83.779907%, 35.021973%, 76.620483%)" offset="0.574219"/><stop stop-opacity="1" stop-color="rgb(83.702087%, 35.140991%, 76.821899%)" offset="0.578125"/><stop stop-opacity="1" stop-color="rgb(83.622742%, 35.258484%, 77.02179%)" offset="0.582031"/><stop stop-opacity="1" stop-color="rgb(83.544922%, 35.377502%, 77.223206%)" offset="0.585937"/><stop stop-opacity="1" stop-color="rgb(83.465576%, 35.494995%, 77.424622%)" offset="0.589844"/><stop stop-opacity="1" stop-color="rgb(83.387756%, 35.614014%, 77.626038%)" offset="0.59375"/><stop stop-opacity="1" stop-color="rgb(83.309937%, 35.731506%, 77.827454%)" offset="0.597656"/><stop stop-opacity="1" stop-color="rgb(83.232117%, 35.850525%, 78.02887%)" offset="0.601562"/><stop stop-opacity="1" stop-color="rgb(83.152771%, 35.968018%, 78.230286%)" offset="0.605469"/><stop stop-opacity="1" stop-color="rgb(83.074951%, 36.087036%, 78.431702%)" offset="0.609375"/><stop stop-opacity="1" stop-color="rgb(82.997131%, 36.204529%, 78.631592%)" offset="0.613281"/><stop stop-opacity="1" stop-color="rgb(82.919312%, 36.323547%, 78.833008%)" offset="0.617188"/><stop stop-opacity="1" stop-color="rgb(82.839966%, 36.44104%, 79.034424%)" offset="0.621094"/><stop stop-opacity="1" stop-color="rgb(82.762146%, 36.558533%, 79.23584%)" offset="0.625"/><stop stop-opacity="1" stop-color="rgb(82.6828%, 36.676025%, 79.437256%)" offset="0.628906"/><stop stop-opacity="1" stop-color="rgb(82.60498%, 36.795044%, 79.638672%)" offset="0.632812"/><stop stop-opacity="1" stop-color="rgb(82.527161%, 36.912537%, 79.838562%)" offset="0.636719"/><stop stop-opacity="1" stop-color="rgb(82.449341%, 37.031555%, 80.039978%)" offset="0.640625"/><stop stop-opacity="1" stop-color="rgb(82.369995%, 37.149048%, 80.241394%)" offset="0.644531"/><stop stop-opacity="1" stop-color="rgb(82.292175%, 37.268066%, 80.44281%)" offset="0.648438"/><stop stop-opacity="1" stop-color="rgb(82.21283%, 37.385559%, 80.644226%)" offset="0.652344"/><stop stop-opacity="1" stop-color="rgb(82.13501%, 37.504578%, 80.845642%)" offset="0.65625"/><stop stop-opacity="1" stop-color="rgb(82.05719%, 37.62207%, 81.045532%)" offset="0.660156"/><stop stop-opacity="1" stop-color="rgb(81.97937%, 37.741089%, 81.246948%)" offset="0.664063"/><stop stop-opacity="1" stop-color="rgb(81.900024%, 37.858582%, 81.448364%)" offset="0.667969"/><stop stop-opacity="1" stop-color="rgb(81.822205%, 37.9776%, 81.64978%)" offset="0.671875"/><stop stop-opacity="1" stop-color="rgb(81.742859%, 38.095093%, 81.851196%)" offset="0.675781"/><stop stop-opacity="1" stop-color="rgb(81.665039%, 38.214111%, 82.052612%)" offset="0.679688"/><stop stop-opacity="1" stop-color="rgb(81.587219%, 38.331604%, 82.252502%)" offset="0.683594"/><stop stop-opacity="1" stop-color="rgb(81.509399%, 38.450623%, 82.453918%)" offset="0.6875"/><stop stop-opacity="1" stop-color="rgb(81.430054%, 38.568115%, 82.655334%)" offset="0.691406"/><stop stop-opacity="1" stop-color="rgb(81.352234%, 38.687134%, 82.85675%)" offset="0.695312"/><stop stop-opacity="1" stop-color="rgb(81.272888%, 38.804626%, 83.058167%)" offset="0.699219"/><stop stop-opacity="1" stop-color="rgb(81.195068%, 38.923645%, 83.259583%)" offset="0.703125"/><stop stop-opacity="1" stop-color="rgb(81.117249%, 39.041138%, 83.459473%)" offset="0.707031"/><stop stop-opacity="1" stop-color="rgb(81.039429%, 39.160156%, 83.660889%)" offset="0.710938"/><stop stop-opacity="1" stop-color="rgb(80.960083%, 39.277649%, 83.862305%)" offset="0.714844"/><stop stop-opacity="1" stop-color="rgb(80.882263%, 39.396667%, 84.063721%)" offset="0.71875"/><stop stop-opacity="1" stop-color="rgb(80.802917%, 39.51416%, 84.265137%)" offset="0.722656"/><stop stop-opacity="1" stop-color="rgb(80.725098%, 39.633179%, 84.466553%)" offset="0.726562"/><stop stop-opacity="1" stop-color="rgb(80.647278%, 39.750671%, 84.666443%)" offset="0.730469"/><stop stop-opacity="1" stop-color="rgb(80.569458%, 39.86969%, 84.867859%)" offset="0.734375"/><stop stop-opacity="1" stop-color="rgb(80.490112%, 39.987183%, 85.069275%)" offset="0.738281"/><stop stop-opacity="1" stop-color="rgb(80.412292%, 40.106201%, 85.270691%)" offset="0.742188"/><stop stop-opacity="1" stop-color="rgb(80.332947%, 40.223694%, 85.472107%)" offset="0.746094"/><stop stop-opacity="1" stop-color="rgb(80.255127%, 40.342712%, 85.673523%)" offset="0.75"/><stop stop-opacity="1" stop-color="rgb(80.177307%, 40.460205%, 85.874939%)" offset="0.753906"/><stop stop-opacity="1" stop-color="rgb(80.099487%, 40.579224%, 86.076355%)" offset="0.757812"/><stop stop-opacity="1" stop-color="rgb(80.020142%, 40.696716%, 86.276245%)" offset="0.761719"/><stop stop-opacity="1" stop-color="rgb(79.942322%, 40.815735%, 86.477661%)" offset="0.765625"/><stop stop-opacity="1" stop-color="rgb(79.862976%, 40.933228%, 86.679077%)" offset="0.769531"/><stop stop-opacity="1" stop-color="rgb(79.785156%, 41.052246%, 86.880493%)" offset="0.773438"/><stop stop-opacity="1" stop-color="rgb(79.707336%, 41.169739%, 87.081909%)" offset="0.777344"/><stop stop-opacity="1" stop-color="rgb(79.629517%, 41.288757%, 87.283325%)" offset="0.78125"/><stop stop-opacity="1" stop-color="rgb(79.550171%, 41.40625%, 87.483215%)" offset="0.785156"/><stop stop-opacity="1" stop-color="rgb(79.472351%, 41.525269%, 87.684631%)" offset="0.789062"/><stop stop-opacity="1" stop-color="rgb(79.393005%, 41.642761%, 87.886047%)" offset="0.792969"/><stop stop-opacity="1" stop-color="rgb(79.315186%, 41.76178%, 88.087463%)" offset="0.796875"/><stop stop-opacity="1" stop-color="rgb(79.237366%, 41.879272%, 88.288879%)" offset="0.800781"/><stop stop-opacity="1" stop-color="rgb(79.159546%, 41.998291%, 88.490295%)" offset="0.804688"/><stop stop-opacity="1" stop-color="rgb(79.0802%, 42.115784%, 88.690186%)" offset="0.808594"/><stop stop-opacity="1" stop-color="rgb(79.00238%, 42.234802%, 88.891602%)" offset="0.8125"/><stop stop-opacity="1" stop-color="rgb(78.923035%, 42.352295%, 89.093018%)" offset="0.816406"/><stop stop-opacity="1" stop-color="rgb(78.845215%, 42.471313%, 89.294434%)" offset="0.820312"/><stop stop-opacity="1" stop-color="rgb(78.767395%, 42.588806%, 89.49585%)" offset="0.824219"/><stop stop-opacity="1" stop-color="rgb(78.689575%, 42.707825%, 89.697266%)" offset="0.828125"/><stop stop-opacity="1" stop-color="rgb(78.610229%, 42.825317%, 89.897156%)" offset="0.832031"/><stop stop-opacity="1" stop-color="rgb(78.53241%, 42.944336%, 90.098572%)" offset="0.835937"/><stop stop-opacity="1" stop-color="rgb(78.453064%, 43.061829%, 90.299988%)" offset="0.839844"/><stop stop-opacity="1" stop-color="rgb(78.375244%, 43.180847%, 90.501404%)" offset="0.84375"/><stop stop-opacity="1" stop-color="rgb(78.297424%, 43.29834%, 90.70282%)" offset="0.847656"/><stop stop-opacity="1" stop-color="rgb(78.219604%, 43.415833%, 90.904236%)" offset="0.851562"/><stop stop-opacity="1" stop-color="rgb(78.140259%, 43.533325%, 91.104126%)" offset="0.855469"/><stop stop-opacity="1" stop-color="rgb(78.062439%, 43.652344%, 91.305542%)" offset="0.859375"/><stop stop-opacity="1" stop-color="rgb(77.983093%, 43.769836%, 91.506958%)" offset="0.863281"/><stop stop-opacity="1" stop-color="rgb(77.905273%, 43.888855%, 91.708374%)" offset="0.867188"/><stop stop-opacity="1" stop-color="rgb(77.827454%, 44.006348%, 91.90979%)" offset="0.871094"/><stop stop-opacity="1" stop-color="rgb(77.749634%, 44.125366%, 92.111206%)" offset="0.875"/><stop stop-opacity="1" stop-color="rgb(77.670288%, 44.242859%, 92.311096%)" offset="0.878906"/><stop stop-opacity="1" stop-color="rgb(77.592468%, 44.361877%, 92.512512%)" offset="0.882812"/><stop stop-opacity="1" stop-color="rgb(77.513123%, 44.47937%, 92.713928%)" offset="0.886719"/><stop stop-opacity="1" stop-color="rgb(77.435303%, 44.598389%, 92.915344%)" offset="0.890625"/><stop stop-opacity="1" stop-color="rgb(77.357483%, 44.715881%, 93.11676%)" offset="0.894531"/><stop stop-opacity="1" stop-color="rgb(77.279663%, 44.8349%, 93.318176%)" offset="0.898438"/><stop stop-opacity="1" stop-color="rgb(77.200317%, 44.952393%, 93.518066%)" offset="0.902344"/><stop stop-opacity="1" stop-color="rgb(77.122498%, 45.071411%, 93.719482%)" offset="0.90625"/><stop stop-opacity="1" stop-color="rgb(77.043152%, 45.188904%, 93.920898%)" offset="0.910156"/><stop stop-opacity="1" stop-color="rgb(76.965332%, 45.307922%, 94.122314%)" offset="0.914063"/><stop stop-opacity="1" stop-color="rgb(76.887512%, 45.425415%, 94.32373%)" offset="0.917969"/><stop stop-opacity="1" stop-color="rgb(76.809692%, 45.544434%, 94.525146%)" offset="0.921875"/><stop stop-opacity="1" stop-color="rgb(76.730347%, 45.661926%, 94.726562%)" offset="0.925781"/><stop stop-opacity="1" stop-color="rgb(76.652527%, 45.780945%, 94.927979%)" offset="0.929688"/><stop stop-opacity="1" stop-color="rgb(76.573181%, 45.898438%, 95.127869%)" offset="0.933594"/><stop stop-opacity="1" stop-color="rgb(76.495361%, 46.017456%, 95.329285%)" offset="0.9375"/><stop stop-opacity="1" stop-color="rgb(76.417542%, 46.134949%, 95.530701%)" offset="0.941406"/><stop stop-opacity="1" stop-color="rgb(76.339722%, 46.253967%, 95.732117%)" offset="0.945312"/><stop stop-opacity="1" stop-color="rgb(76.260376%, 46.37146%, 95.933533%)" offset="0.949219"/><stop stop-opacity="1" stop-color="rgb(76.182556%, 46.490479%, 96.134949%)" offset="0.953125"/><stop stop-opacity="1" stop-color="rgb(76.10321%, 46.607971%, 96.334839%)" offset="0.957031"/><stop stop-opacity="1" stop-color="rgb(76.025391%, 46.72699%, 96.536255%)" offset="0.960938"/><stop stop-opacity="1" stop-color="rgb(75.947571%, 46.844482%, 96.737671%)" offset="0.964844"/><stop stop-opacity="1" stop-color="rgb(75.869751%, 46.963501%, 96.939087%)" offset="0.96875"/><stop stop-opacity="1" stop-color="rgb(75.790405%, 47.080994%, 97.140503%)" offset="0.972656"/><stop stop-opacity="1" stop-color="rgb(75.712585%, 47.200012%, 97.341919%)" offset="0.976562"/><stop stop-opacity="1" stop-color="rgb(75.63324%, 47.317505%, 97.541809%)" offset="0.980469"/><stop stop-opacity="1" stop-color="rgb(75.55542%, 47.436523%, 97.743225%)" offset="0.984375"/><stop stop-opacity="1" stop-color="rgb(75.4776%, 47.554016%, 97.944641%)" offset="0.988281"/><stop stop-opacity="1" stop-color="rgb(75.39978%, 47.673035%, 98.146057%)" offset="0.992188"/><stop stop-opacity="1" stop-color="rgb(75.344849%, 47.755432%, 98.287964%)" offset="1"/></linearGradient></defs><rect x="-37.5" width="450" fill="#ffffff" y="-37.499999" height="449.999989" fill-opacity="1"/><rect x="-37.5" width="450" fill="#ffffff" y="-37.499999" height="449.999989" fill-opacity="1"/><g clip-path="url(#bd1913bb14)"><g transform="matrix(1, 0, 0, 1, 4, 97)"><g clip-path="url(#79fd503fac)"><g clip-path="url(#528061108f)"><path fill="#004aad" d="M 339.132812 55.191406 C 341.066406 55.191406 342.640625 53.617188 342.640625 51.683594 C 342.640625 49.746094 341.066406 48.171875 339.132812 48.171875 C 337.195312 48.171875 335.621094 49.746094 335.621094 51.683594 C 335.621094 53.617188 337.195312 55.191406 339.132812 55.191406 Z M 334.675781 52.757812 L 250.1875 52.757812 L 230.378906 72.570312 L 205.371094 72.570312 L 179.53125 46.730469 L 102.425781 46.730469 L 64.0625 8.367188 C 62.519531 9.242188 60.523438 9.027344 59.207031 7.710938 C 57.625 6.132812 57.625 3.566406 59.207031 1.988281 C 60.785156 0.40625 63.351562 0.40625 64.929688 1.988281 C 66.246094 3.304688 66.460938 5.300781 65.585938 6.84375 L 103.316406 44.578125 L 180.421875 44.578125 L 206.261719 70.417969 L 229.488281 70.417969 L 249.296875 50.605469 L 334.675781 50.605469 C 335.164062 48.59375 336.972656 47.097656 339.132812 47.097656 C 341.660156 47.097656 343.71875 49.152344 343.71875 51.683594 C 343.71875 54.210938 341.660156 56.269531 339.132812 56.269531 C 336.972656 56.269531 335.164062 54.769531 334.675781 52.757812 " fill-opacity="1" fill-rule="nonzero"/></g><path fill="#004aad" d="M 41.414062 176.46875 L 41.425781 176.457031 L 41.414062 176.46875 " fill-opacity="1" fill-rule="nonzero"/><path fill="#004aad" d="M 41.898438 175.980469 L 41.984375 175.898438 L 41.898438 175.980469 " fill-opacity="1" fill-rule="nonzero"/><g clip-path="url(#4d76401464)"><path fill="#004aad" d="M 41.140625 175.21875 C 42.507812 173.851562 42.507812 171.625 41.140625 170.257812 C 39.769531 168.886719 37.542969 168.886719 36.175781 170.257812 C 34.808594 171.625 34.808594 173.851562 36.175781 175.21875 C 37.542969 176.589844 39.769531 176.589844 41.140625 175.21875 Z M 41.046875 168.828125 L 72.894531 136.976562 L 147.039062 136.976562 L 188.144531 95.875 L 244.507812 95.875 L 263.078125 77.308594 L 313.808594 77.308594 C 314.28125 75.59375 315.847656 74.335938 317.707031 74.335938 C 319.941406 74.335938 321.753906 76.148438 321.753906 78.382812 C 321.753906 80.617188 319.941406 82.429688 317.707031 82.429688 C 315.847656 82.429688 314.28125 81.171875 313.808594 79.460938 L 263.96875 79.460938 L 245.402344 98.027344 L 189.035156 98.027344 L 147.933594 139.132812 L 73.785156 139.132812 L 42.566406 170.351562 C 43.644531 172.117188 43.425781 174.457031 41.898438 175.980469 C 40.113281 177.769531 37.203125 177.769531 35.414062 175.980469 C 33.625 174.191406 33.625 171.285156 35.414062 169.496094 C 36.941406 167.96875 39.28125 167.75 41.046875 168.828125 " fill-opacity="1" fill-rule="nonzero"/></g><path fill="#004aad" d="M 41.984375 175.898438 C 42.054688 175.824219 42.125 175.757812 42.175781 175.707031 C 42.117188 175.765625 42.050781 175.828125 41.984375 175.898438 " fill-opacity="1" fill-rule="nonzero"/><path fill="#004aad" d="M 41.425781 176.457031 C 41.488281 176.390625 41.636719 176.246094 41.898438 175.980469 C 41.703125 176.175781 41.507812 176.371094 41.425781 176.457031 " fill-opacity="1" fill-rule="nonzero"/><path fill="#004aad" d="M 41.414062 176.46875 C 41.371094 176.507812 41.378906 176.503906 41.414062 176.46875 " fill-opacity="1" fill-rule="nonzero"/><path fill="#004aad" d="M 42.394531 175.488281 C 42.355469 175.523438 42.277344 175.605469 42.175781 175.707031 C 42.296875 175.585938 42.363281 175.519531 42.394531 175.488281 " fill-opacity="1" fill-rule="nonzero"/><g clip-path="url(#ce00b9ef36)"><path fill="#004aad" d="M 298.804688 94.417969 C 298.804688 96.351562 300.375 97.925781 302.3125 97.925781 C 304.246094 97.925781 305.820312 96.351562 305.820312 94.417969 C 305.820312 92.480469 304.246094 90.90625 302.3125 90.90625 C 300.375 90.90625 298.804688 92.480469 298.804688 94.417969 Z M 199.527344 116.09375 C 201.390625 116.09375 202.953125 117.351562 203.425781 119.0625 L 253.488281 119.0625 L 279.214844 93.339844 L 297.859375 93.339844 C 298.34375 91.328125 300.152344 89.828125 302.3125 89.828125 C 304.839844 89.828125 306.898438 91.886719 306.898438 94.417969 C 306.898438 96.945312 304.839844 99.003906 302.3125 99.003906 C 300.152344 99.003906 298.34375 97.503906 297.859375 95.492188 L 280.105469 95.492188 L 254.382812 121.21875 L 203.425781 121.21875 C 202.953125 122.929688 201.390625 124.1875 199.527344 124.1875 C 197.292969 124.1875 195.480469 122.375 195.480469 120.140625 C 195.480469 117.90625 197.292969 116.09375 199.527344 116.09375 " fill-opacity="1" fill-rule="nonzero"/></g><g clip-path="url(#b83c7323e3)"><path fill="#004aad" d="M 5.40625 97.925781 C 7.34375 97.925781 8.917969 96.351562 8.917969 94.417969 C 8.917969 92.480469 7.34375 90.90625 5.40625 90.90625 C 3.472656 90.90625 1.898438 92.480469 1.898438 94.417969 C 1.898438 96.351562 3.472656 97.925781 5.40625 97.925781 Z M 0.820312 94.417969 C 0.820312 91.886719 2.878906 89.828125 5.40625 89.828125 C 7.566406 89.828125 9.375 91.328125 9.863281 93.339844 L 48.832031 93.339844 L 77.789062 64.386719 L 167.363281 64.386719 C 167.832031 62.675781 169.398438 61.417969 171.261719 61.417969 C 173.496094 61.417969 175.308594 63.226562 175.308594 65.464844 C 175.308594 67.699219 173.496094 69.511719 171.261719 69.511719 C 169.398438 69.511719 167.832031 68.253906 167.363281 66.539062 L 78.679688 66.539062 L 49.726562 95.492188 L 9.863281 95.492188 C 9.375 97.503906 7.566406 99.003906 5.40625 99.003906 C 2.878906 99.003906 0.820312 96.945312 0.820312 94.417969 " fill-opacity="1" fill-rule="nonzero"/></g><path fill="#004aad" d="M 152.933594 84.84375 C 152.933594 86.78125 154.503906 88.351562 156.441406 88.351562 C 158.375 88.351562 159.949219 86.78125 159.949219 84.84375 C 159.949219 82.910156 158.375 81.335938 156.441406 81.335938 C 154.503906 81.335938 152.933594 82.910156 152.933594 84.84375 Z M 79.261719 106.929688 L 102.425781 83.765625 L 151.988281 83.765625 C 152.476562 81.757812 154.28125 80.257812 156.441406 80.257812 C 158.96875 80.257812 161.027344 82.316406 161.027344 84.84375 C 161.027344 87.371094 158.96875 89.429688 156.441406 89.429688 C 154.28125 89.429688 152.476562 87.929688 151.988281 85.917969 L 103.316406 85.917969 L 84.460938 104.777344 L 122.414062 104.777344 L 132.753906 115.113281 C 134.296875 114.238281 136.292969 114.453125 137.609375 115.769531 C 139.191406 117.351562 139.191406 119.914062 137.609375 121.496094 C 136.03125 123.074219 133.46875 123.074219 131.886719 121.496094 C 130.570312 120.179688 130.355469 118.179688 131.230469 116.636719 L 121.523438 106.929688 L 79.261719 106.929688 " fill-opacity="1" fill-rule="nonzero"/><path fill="#004aad" d="M 67.550781 45.902344 C 67.550781 47.835938 69.125 49.410156 71.058594 49.410156 C 72.996094 49.410156 74.570312 47.835938 74.570312 45.902344 C 74.570312 43.964844 72.996094 42.390625 71.058594 42.390625 C 69.125 42.390625 67.550781 43.964844 67.550781 45.902344 Z M 66.605469 44.824219 C 67.09375 42.8125 68.902344 41.316406 71.058594 41.316406 C 73.589844 41.316406 75.644531 43.371094 75.644531 45.902344 C 75.644531 48.429688 73.589844 50.488281 71.058594 50.488281 C 68.902344 50.488281 67.09375 48.988281 66.605469 46.976562 L 51.300781 46.976562 L 34.316406 29.996094 C 32.773438 30.871094 30.777344 30.65625 29.460938 29.339844 C 27.878906 27.757812 27.878906 25.195312 29.460938 23.617188 C 31.039062 22.035156 33.605469 22.035156 35.183594 23.617188 C 36.5 24.933594 36.714844 26.929688 35.839844 28.472656 L 52.191406 44.824219 L 66.605469 44.824219 " fill-opacity="1" fill-rule="nonzero"/><path fill="#004aad" d="M 92.097656 121.496094 C 92.097656 123.429688 93.667969 125.003906 95.605469 125.003906 C 97.542969 125.003906 99.113281 123.429688 99.113281 121.496094 C 99.113281 119.558594 97.542969 117.984375 95.605469 117.984375 C 93.667969 117.984375 92.097656 119.558594 92.097656 121.496094 Z M 20.910156 132.617188 C 22.773438 132.617188 24.339844 133.878906 24.808594 135.589844 L 47.109375 135.589844 L 62.28125 120.417969 L 91.152344 120.417969 C 91.640625 118.40625 93.449219 116.910156 95.605469 116.910156 C 98.132812 116.910156 100.191406 118.964844 100.191406 121.496094 C 100.191406 124.023438 98.132812 126.082031 95.605469 126.082031 C 93.449219 126.082031 91.640625 124.582031 91.152344 122.570312 L 63.171875 122.570312 L 48 137.742188 L 24.808594 137.742188 C 24.339844 139.453125 22.773438 140.714844 20.910156 140.714844 C 18.675781 140.714844 16.863281 138.902344 16.863281 136.664062 C 16.863281 134.429688 18.675781 132.617188 20.910156 132.617188 " fill-opacity="1" fill-rule="nonzero"/></g></g></g><g clip-path="url(#4f5d02e52d)"><g clip-path="url(#6eac756974)"><path fill="url(#7fd6619134)" d="M 103.828125 57.8125 L 103.828125 314.238281 L 228.324219 314.238281 L 228.324219 57.8125 Z M 103.828125 57.8125 " fill-rule="nonzero"/></g></g><g clip-path="url(#f3f1bdf301)"><g clip-path="url(#c15a83cc6a)"><path fill="url(#cfb34a6e48)" d="M 241.761719 57.8125 L 241.761719 314.238281 L 366.292969 314.238281 L 366.292969 57.8125 Z M 241.761719 57.8125 " fill-rule="nonzero"/></g></g></svg>